<svg xmlns="http://www.w3.org/2000/svg" id="a" viewBox="0 0 900 320"><defs><style>.aa,.ab,.ac,.ad,.ae,.af,.ag,.ah,.ai,.aj,.ak,.al,.an,.ao,.aq,.ar,.as,.at,.au,.av,.aw,.az,.ba,.bb,.bc,.bd,.be,.bf,.bg,.bh,.k,.l,.m,.o,.q,.s,.u,.v,.x,.y,.z{stroke-width:0}.au,.k{fill:#735283}.l{fill:#eeeff1}.aa,.ab,.ac,.ad,.ae,.af,.ag,.ah,.ai,.aj,.ak,.al,.ao,.aq,.ar,.as,.at,.au,.av,.aw,.az,.ba,.bb,.bc,.bd,.be,.bg,.bh,.l,.m,.o,.q,.s,.u,.y,.z{fill-rule:evenodd}.m{fill:#5e436b}.ak{fill:#89909b}.o{fill:#dddfe2}.ah{fill:#9471a4}.q,.x{fill:#c3987b}.ba{fill:#8b6651}.s{fill:#734d61}.u{fill:#815c92}.at,.v{fill:#583f64}.y{fill:#5f6878}.z{fill:#bbbfc6}.aa{fill:#d1a1b8}.ab{fill:#8e699f}.ac{fill:#96637c}.ad,.an{fill:#734d60}.ae{fill:#ab90b8}.af{fill:#513a5c}.ag{fill:#cfbfd6}.ai{fill:#abafb8}.aj{fill:#e7dfea}.al{fill:#b7a0c2}.ao{fill:#c3b0cc}.aq{fill:#543042}.ar{fill:#dfbda5}.as{fill:#9f80ae}.av{fill:#b3889d}.aw{fill:#654873}.az{fill:#dbcfe0}.bb{fill:#1d2432;opacity:.1}.bc{fill:#88619a}.bd{fill:#7a578a}.be{fill:#cccfd4}.bf{fill:#232a38}.bg{fill:#6c4d7b}.bh{fill:#9a9fa9}</style></defs><g id="b"><path d="m245.63 302.65-15.3-13.18 50.67-1.83 28.61-4.9 18.77.25 10.96-3.17 14.48-2.27 60.36-10.71 81.41-1.22 49.83 7.72-1.38 15.83-28.45 2.65 10.88 7.95 32.89-.55 28.52-6.29 16.46 6.07-41.99 3.71-19.61 14.26-68.21-10.12-14.81-10.31-7.82-6.01-9.65 7.86-53.54-.45-4.6 1.42-1.32 4.43-30.41 4.79-11.07-5.42-7.54 5.42-88.14-5.93z" class="bb"/><path d="m544.38 264.45 30.57-4.62 53.04-3.35 55.07-2.07 28.86 13.58-7.48 9.13-54.78 4.98-10.11-4.98-2.08 6.23-79.02-3.99-14.07-14.91zM716.73 275.87l34.66-1.49 32.7 1.24 28.25 2.98-19.27 13.16-48.83 1.29-27.51-17.18z" class="bb"/></g><g id="c"><path d="m726.44 134.9-10-7.28-1.14 10.09 5.27 3.33 5.87-6.14z" class="ah"/><path d="m727.5 152.18-9.48 9.39-.96-9.47 5.88-2.2 4.56 2.28z" class="aw"/><path d="m717.06 136.83 9.38-1.93 1.06 17.28-10.53 1.58.09-16.93z" class="au"/><path d="m717.55 122.86 3.37 89.58-24.51 1.94-1.77-61.21 4.9-32.14 18.01 1.83z" class="z"/><path d="m700.79 125.55-8.27-7.61-16.26 3.09-7.43 89.37 27.58 3.98 4.38-88.83z" class="bh"/><path d="m717.55 122.86-4.4-5.64-2.76-.6.66-2.09-3.27-4.19-4.41-.97-3.83 2.53 1.25 13.65 16.76-2.69z" class="ac"/><path d="m699.54 111.9-4.5-2.96-6.01.58-4.22 3.8v2.11l-2.73.35-5.82 5.25 24.53 4.52-1.25-13.65z" class="s"/><path d="m711.05 114.53-11.04 2.48-1.55.93 1.81 1.98 12.88-2.7-2.1-2.69z" class="av"/><path d="m700.01 117.01-15.2-3.69-2.73 2.46 18.19 4.14-.26-2.91z" class="ac"/><path d="m689.69 128.41 6.31 1.05-.52 4.92-6.58-1.06.79-4.91zM679.86 126.83l6.67 1.23-.62 4.56-6.31-1.05.26-4.74z" class="ab"/><path d="m705.65 130.52 8.34-1.32 1.14 24.21-10.35 1.14.87-24.03z" class="ak"/><path d="m708.14 133.5 3.39-.53.82 17.67-4.5.52.29-17.66z" class="z"/><path d="m707.2 136.66 5.15-.88.06.94-5.09.87-.12-.93zM706.97 140.17l5.96-1.11-.17 1.11-5.67.82-.12-.82zM707.03 143.73l5.67-.76.18 1.06-5.85.64v-.94zM706.97 147.48l6.32-.7-.12.93-6.43.76.23-.99z" class="ak"/><path d="m699.54 111.9-2.66-6.74 11.67-1.14-.77 6.32-8.24 1.56z" class="au"/><path d="m698.72 106.04-1.93-2.28-7.98.44.22 5.32 10.51 2.38-.82-5.86z" class="aw"/><path d="m688.81 104.2 9.12-2.72 10.62 2.54-9.83 2.02-9.91-1.84z" class="ah"/><path d="m691.18 103.49 6.75-2.01 3.7.89h-2.09l-.86 1.39-4.04.7-3.46-.97z" class="bb"/><path d="m698.68 103.76 2.95-1.39 2.7-32.36-7.85.54 2.2 33.21z" class="al"/><path d="m698.68 103.76-3.72-1.39-1.59-31.82 5.48.05-.05 1.62-.12 31.54z" class="as"/><path d="m693.37 70.55 4.43-1.57 6.53 1.03-5.53 2.21-5.43-1.67z" class="ao"/></g><g id="d"><path d="m441.02 47.7-11.19-9.99 1.6-2.24h6.17l3.42 12.23z" class="aw"/><path d="m419.15 26.3 16.78-8.83-4.5 15.26-8.07-.94-4.21-5.49z" class="av"/><path d="m412.01 39.16 7.14-12.86 8.84 4.15 2.39 2.28-18.37 6.43z" class="aa"/><path d="m423.45 28.31 9.18-3.21 1.11 5.35h-9.68l-.61-2.14z" class="bc"/><path d="m423.45 28.31-.9 7.16 7.83-1.39-2.39-3.63-4.54-2.14zM441.02 47.7l-9.59-17.54 2.92-1.52 14.62 23.62-7.95-4.56z" class="au"/><path d="m678.68 22.38-16.75-1.28 9.64 10.27 5.08-3.54 2.03-5.45z" class="aa"/><path d="m686.39 30.27-7.71-7.89-6.32 5.81 1.8 2.08h12.23z" class="av"/><path d="m677.27 30.27-1.63-5.1-5.08 1.07 1.8 1.95-.79 1.11 5.7.97z" class="bc"/><path d="m675.64 25.17-8.33-.41 1.89 4.39 3.16-.96 3.28-3.02zM661.51 39.16l5.76-7.57h1.93l-4.74 10.34-2.95-2.77z" class="au"/><path d="m661.93 45.71 55.95 7.77-3.44-3.64-5.18.23-29.86-5.59-20.93-2.55-.65 1.7 4.11 2.08z" class="m"/><path d="m661.51 39.16 47.75 10.91-48.45-7.16-1.55-1.88 2.25-1.87z" class="bg"/><path d="m613.57 13.68-20.02 6.42 17.23 6.42 9.54-1.35-6.75-11.49z" class="aa"/><path d="m640.24 17.99-26.67-4.31 2.55 9.58 5.03 3.26 19.09-8.53z" class="av"/><path d="m614.32 16.51 11.15 4.71-8.8 4.47-3.02-2.43.67-6.75z" class="bc"/><path d="m614.32 16.51-7.72 5.41 10.07 3.77-2.35-9.18z" class="au"/><path d="m611.7 29.02 2.98-.83 19.57 17.14-6.12 2.37-8.75-8.63-7.68-10.05z" class="ah"/><path d="m622.52 44.78-11.7-12.52.88-3.24 18.11 17.4-7.29-1.64z" class="aw"/><path d="m627.55 45.33-5.03-.55-22.77 24.8 2.58 6.77 11.22-8.65 14-22.37z" class="aw"/><path d="m605.69 70.39 21.86-25.06 1.31 5.35-6.34 10.47-9.75 13.57-7.08-4.33z" class="bd"/><path d="m610.78 73.18 18.08-22.5h6.71l-1.32 2.8-14.97 26.29-8.5-6.59zM702.62 170.61l2.05 6.6.58 4.01 6.23-1.44 4.17-6.63-6.8-3.11-6.23.57z" class="aw"/><path d="m589.23 277.87 9.82-1.47 5.29-18.2-18.16 1.02 3.05 18.65z" class="ak"/><path d="m574.95 259.83 2.39 16.63 11.89 1.41 3.16-19.67-17.44 1.63zM637.47 283.35l-12.02-1.32-4.33-19.05 18.43 3.06-2.08 17.31z" class="y"/><path d="m636.94 268.07.53 15.28 12.19-1.25 5.15-21.66-17.87 7.63z" class="ak"/><path d="m704.44 277.12-10.06-.93-4.57-18.47 16.38 1.5-1.75 17.9z" class="y"/><path d="m719.5 259.33-2.77 16.54-12.29 1.25-3.51-21.86 18.57 4.07z" class="ak"/><path d="m728.65 206.87-9.15 52.46-82.56 8.74-10.76-47.19 42.58-7.37 59.89-6.64z" class="bd"/><path d="m728.65 206.87-5.5 31.54-48.07 9.63-15.71-17.84-24.05 2.08-.25-5.5 33.69-13.27 59.89-6.64z" class="bb"/><path d="m567 209.24 7.95 50.59 61.99 8.24-1.87-41.29-12.86-10.2-55.21-7.34z" class="aw"/><path d="m567 209.24 1.83 11.64 66.49 11.4-.25-5.5-12.86-10.2-55.21-7.34z" class="bb"/><path d="m686.53 237.04-14.95-3.3-11.43-15.34 16.33.9 10.05 17.74z" class="ae"/><path d="m741.48 192.1-1.36 8.35-2.58 2.29 2.01 1.26-4.45 27.43-48.57 5.61-13.38-15.17-38.08 4.91-8.89-27.19 115.3-7.49z" class="al"/><path d="m634.02 206.87-16.96-8.95-59.58-3.03.94 7.51 1.91 1.98-1.51 1.17.92 7.33 75.33 13.9-1.05-19.91z" class="ae"/><path d="m557.48 194.89 98.65-18.86 85.35 16.07-107.46 14.77-76.54-11.98z" class="aj"/><path d="m740.12 200.45-105.66 14.79-3.13.96 3.3 2.2L739.55 204l.57-3.55z" class="ah"/><path d="m634.46 215.24-76.04-12.84.4 3.15 75.81 12.85-.17-3.16z" class="u"/><path d="m581.98 223.13 18.03 3.09 2.05 2.11 2.32-1.36 19.28 3.31 1.12 11.88-40.94-5.49-1.86-13.54zM624.78 248.36l-18.72-2.51-2.63.55-1.46-1.1-17.31-2.32 1.52 10.84 39.27 5.4-.67-10.86z" class="ac"/><path d="m600.01 226.22.76 5.42 4.29.64-.68-5.31-4.37-.75zM601.97 245.3l.56 4.51 4.18.54-.65-4.5-4.09-.55z" class="ae"/><path d="m575.46 191.45 34.95 8.14 31.94.93 26.06-5.79 4.74-3.63 7.88 1.46 26.5 2.17 14.75-6.24-29.88-5.63-107.74 6.83-9.2 1.76z" class="bb"/><path d="m432.63 56.83-11.97 12.74-3.94 4.59 28.88-18.38-12.97 1.05z" class="af"/><path d="m511.38 96.13-24.04-33.9-11.5 1.18 1.85 3.42 21.04 30.13 10.57 3.36 2.08-4.19z" class="m"/><path d="m487.34 62.23-9.65 4.6-45.06-10 3.3-3.6 2.37-.97-.02-1.58 2.74-2.98 46.32 14.53z" class="aw"/><path d="M507.52 97.91 482.79 64.4l-2.35-.26.73 1.03 24.27 34.28 2.08-1.54z" class="bg"/><path d="m554.5 155.61-13.46 7.19-12.64-2.21 27.02-15.16-.92 10.18z" class="af"/><path d="m555.07 149.29-24.66 13.33.44 1.67 24.22-13.42v-1.58z" class="m"/><path d="m551.08 139.44 3.42 16.17 2.69-1.31.29-1.28.88.71 2.63-1.28-2.57-15.44-3.53-3.69-3.81 6.12z" class="aw"/><path d="m557.19 154.3 1.17-.57-3.73-19.88-.13.1-1.26 2.02 3.95 18.33z" class="au"/><path d="M472.48 92.43 469 111.78l14.04 2.07.88-5.25-8.72-1.07 1.85-8.08.03-4.11-4.6-2.91z" class="bg"/><path d="m566.82 105.68 8.03-16.14 13.9-13.19 1.35 11.42-21.98 24.01-1.3-6.1z" class="aw"/><path d="m569.45 93.85-2.63 11.83 19.91-26.5h-9.96l-6.09 6.28-1.23 8.39z" class="at"/><path d="m570.68 79.99-13.2 22.21 11.97-8.35 9.3-14.67-8.07.81z" class="aw"/><path d="m629.81 81.39-44.92-24.56-3.32 5.4 29.11 21.62 19.13 5.69v-8.15zM574.85 73.18l-4.17 6.81 55.8 22.38v-6.24l-25.27-16.95-26.36-6z" class="au"/><path d="m581.57 62.23 48.24 27.31-3.33 6.59-51.63-22.95 6.72-10.95z" class="aw"/><path d="m640.57 133.09 11.35-39.07-7.84-4.48-11.29 16.76 2.78 29.25 5-2.46z" class="bg"/><path d="m644.08 89.54-10.09 29.4-9.56-13.26 12.51-20.22 7.14 4.08z" class="as"/><path d="m588.75 145.78 48.16-7.37L647 159.29l-41.94 3.51-16.31-17.02z" class="s"/><path d="m691.04 145.78-54.13-7.37 1.15 16.32 19.71 6.67 33.27-15.62z" class="aq"/><path d="m621.21 111.22-3.33 7.72 7.34 19.47 12.84 16.32 15.21 5.15-10.83-24.98-21.23-23.68z" class="bc"/><path d="m659.26 154.09-32.78-51.72-5.27 8.85 32.06 48.66 5.99-5.79z" class="ah"/><path d="m617.88 118.94-5.49 8.24 7.27 22.72 13.13 17.81 7.78-11.99-11.71-17.31-10.98-19.47z" class="aw"/><path d="m610.78 142.41 10.43 27.07 11.58-1.77-20.4-40.53-1.61 15.23z" style="fill:#4a3554;fill-rule:evenodd;stroke-width:0"/><path d="m628.86 138.41 16.15 18.25-6.95 1.87v-3.8l-9.2-16.32z" class="ah"/><path d="m685.73 181.6-4.34 7.52-32.42 5.54-2.14-1.5-1.7 2.16-8.22 1.4-7.1-13.04 25.26-6.49 30.66 4.41z" class="bd"/><path d="m580.68 179.68 3.98 10.01 8.29 1.12 1.62-1.34 3.97 2.09 7.05.95 1.33-2.34 3.49 2.99 7.98 1.07 1.94-1.07 2.95 1.73 13.63 1.83-1.84-10.94-18.95-8.59-35.44 2.49z" class="m"/><path d="m689.95 153.17-4.22 28.43-50.66 4.18-6.49-22.45 9.48-8.6 51.89-1.56z" class="ac"/><path d="m638.06 154.73-51.33-.44-6.05 25.39 54.39 6.1 2.99-31.05z" class="s"/><path d="m691.04 145.78-1.09 7.39-52.67 9.63-5.95-3.78 6.73-4.29 52.98-8.95z" class="aw"/><path d="m638.06 154.73-49.31-8.95-2.02 8.51 50.55 8.51.78-8.07z" class="af"/><path d="m644.08 188.83 6.08-.94-1.19 6.77-3.84.66-1.05-6.49z" class="ah"/><path d="m590.59 184.12 5.69.7 2.26 6.74-5.59-.75-2.36-6.69zM603.43 185.78l5.36.62 1.62 6.76-4.82-.65-2.16-6.73zM616.04 187.31l5.35.58 1.89 7-4.89-.66-2.35-6.92zM636.94 85.46l-7.13-4.07-23.21 50.17 4.18 10.85 26.16-56.95z" class="bd"/><path d="m644.08 89.54 6-10.85 21.49-3.97-12.31 8.25-15.18 6.57z" class="aa"/><path d="m644.08 89.54 15.27.92 12.22-15.74-27.49 14.82z" class="av"/><path d="m584.89 56.83-1.75-10.01-16.32-8.24 6.32 11.58 11.75 6.67z" class="aa"/><path d="m584.89 56.83-18.07-18.25 5.62 15.44 12.45 2.81z" class="av"/><path d="m606.6 131.56-8.02-6.01-13.1 1.63 10.56 3.51 10.56.87z" class="aa"/><path d="m606.6 131.56-21.12-4.38 10.56 6.9 10.56-2.52z" class="av"/><path d="m569.45 93.85-27.49 2.28 10.12 7.37 8.42 1.55h4.98l3.97-11.2z" class="ac"/><path d="m569.45 93.85 4.04 24.37-16.01 10.14 3.02-23.31 8.95-11.2z" class="s"/><path d="m560.5 105.05-24.47-15.51 5.93 13.96 13.35 7.6h3.11l2.08-6.05z" class="bd"/><path d="m560.5 105.05 6.5 28.69-8.58 3.27-6.16-9.83 3.05-16.08 5.19-6.05zM536.03 89.54l-16.73 4.31 9.86 11.2 21.17 10.34 2.81 1.77 2.17-6.06-19.28-21.56z" class="aw"/><path d="m550.33 115.39-13.02 15.42-3.12 14.22 8.67-2.87 5.41-5.15 2.81 2.43 7.34-2.43-3.11-25.91-4.98 4.29z" class="af"/><path d="m519.3 93.85-20.57 3.11-9.99 1.45-7.94 9.81-5.6 14.18 35.65 10.38 31.11-15.31 8.37-2.08-31.03-21.54z" class="aa"/><path d="m475.2 122.4 8.72 15.45 50.27 7.18 16.14-29.64-31.03 5.18-6.78 6.97-37.32-5.14z" class="av"/><path d="m475.2 122.4 6.16-6.16 1.55 7.22 3.28 9.01 4.5-7.93 4.03-6.52 3.3 7.53 2.99 9.06 4.43-8.04 4.22-7.37 2.86 8.34 4.3 7.07 2.48-14.04 1.86-9.71 4.74 8.6 3.9 8.64 2.72-9.74 1.67-8.37 3.12 7.57 2.78 7.5 3.32-8.52-24.11 4.03-6.78 6.97-37.32-5.14z" class="ac"/><path d="m542.86 142.16 6.59-14.09 1.63 11.37-8.22 2.72z" class="aw"/><path d="m601.39 162.29 17.89 2.69-1.99 11.93-18.95-2.45 3.05-12.17z" class="ac"/><path d="m604.54 166.48 10.27 1.32-1.06 5-10.61-1.49 1.4-4.83z" class="bg"/><path d="m541.04 162.8-34.44-17.77 1.09 7.51 25.79 14.3 3.02-1.61-.47-.94h2.22l2.79-1.49z" class="aw"/><path d="m538.25 164.29-32.81-16.84v.92l31.06 16.86 1.75-.94z" class="bd"/><path d="m507.69 152.54 1.61-11.06-13.89-9.92 4.83 12.51 7.45 8.47z" class="bd"/><path d="m507.69 152.54-10.35-5.09-1.93-15.89 12.28 20.98z" class="m"/><path d="m482.79 64.4-44.51-13.72-2.35 2.55 45.24 11.94 1.62-.77z" class="bd"/><path d="m420.66 69.57 1.34 13.6-13.56 13.71 4.13-15.58 8.09-11.73z" class="bg"/><path d="m420.66 69.57-13.39 9.51 1.17 17.8 12.22-27.31z" class="m"/><path d="m487.34 62.23 6.64-3.13-1.49-11.63-3.75 4.5-1.4 10.26z" class="aa"/><path d="m492.49 47.47-7.49 6.9 2.34 7.86 5.15-14.76zM489.91 102.2l4.92 13.19 5.41 3.23 14.94.32-16.45-6.26 1.51-.9 12.73-6.1-9.61-5.36-14.62-1.91-4.99 2.33-2.95 7.48 9.11-6.02z" class="av"/><path d="m472.48 92.43 4.56 7.02 6.71 1.29 5.12-1.29 8.4 3.9-2.46 12.04 20.35 3.55 4.12-18.43-20.57-3.55-7.49.31-5.07-2.47-13.69-2.36Zm38.55 21.42-10.79-2.07 1.93-8.43 10.81 2.33-1.95 8.16Z" class="bg"/><path d="m483.75 100.74 2.42-5.95 12.56 2.17-1.45 6.39-13.53-2.61z" class="s"/><path d="m705.84 164.73-3.22 5.88 14.56 7.1 4.13-5.79-6.35-3.68-9.12-3.51z" class="au"/><path d="m724.09 170.04-12.52-7.24-5.73 1.93 16.26 10.01 1.99-4.7z" class="u"/><path d="m697.53 167.71-6.66 23.16-22.46 3.86-1.58-27.02h30.7z" class="as"/><path d="m693.64 181.22-2.77 9.65-9.84 1.69-3.32-12.88 15.93 1.54z" class="bb"/><path d="m657.88 166.31.44 8.43 2.37 5.65-1.9 3.44.47 9.07 9.15 1.83 1.58-25.09v-3.59l-12.11.26z" class="ab"/><path d="m657.88 166.31 12.11 3.33 27.54-1.93-18.77-5.26-20.88 3.86z" class="ao"/><path d="m658.32 174.74 4.74 1.29-.7 8.79-3.57-.99-.47-9.09z" class="bg"/><path d="m677.71 179.68 6.12-4.94 20.84 2.47 8.74 5.65-11.67 2.92-24.03-6.1z" class="u"/><path d="m677.71 179.68 5.11 6.97 22.52 4.8 6.58-5.67-2.1-2.92-32.11-3.18zM704.67 177.21l19.42-7.17 8.18 4.7-12.37 6.48-10.08 1.64-5.15-5.65z" class="bd"/><path d="m732.27 174.74-9.99 13.75-16.94 2.96 4.48-8.59 22.45-8.12z" class="bg"/><path d="m622.52 44.78 38.99-5.62-.7 3.75-17.43 6.9-14.52.87-6.34-5.9z" class="au"/><path d="m628.86 50.68 31.95-7.77 1.12 2.8-27.68 7.77-5.39-2.8z" class="at"/><path d="M610.82 32.26 593.55 20.1l8.78 1.23 2.8 1.22 1.47-.63 9.52 1.34 9.35-2.04 2.08 1.22 3.16-2.37 9.53-2.08-17.72 17.06-5.85-4.07-5.85 1.28z" class="s"/><path d="m616.12 23.26 6.4 11.79-11.7-2.79 5.3-9zM625.47 21.22l-2.29 9.05 7.53-10.2-5.24 1.15zM602.33 21.33l5.61 6.86-1.34-6.27-4.27-.59zM709.26 50.07 723.5 43l1.99.26 3.02-2.75 9.28 4.77.01 1.28 5.73 1.67 10.09 15.93-27.22-13.39-17.14-.7z" class="ac"/><path d="m709.26 50.07 20.01-.88 24.35 14.97-15.63-3.35-3.9-2.46-1.16 1.38-7.55-1.62-1.7-1.78-2.06.97-12.36-7.23z" class="s"/><path d="m729.27 49.19 8.52-3.91 5.74 2.95-14.26.96zM728.51 40.51l-6.04 8.98L723.5 43l5.01-2.49z" class="s"/><path d="m729.27 49.19 3.66 10.54 5.06 1.08-8.72-11.62zM722.47 49.49l2.91 8.62-3.76-.81.85-7.81z" class="ac"/><path d="m667.84 34.56-1.04-2.36-.56-3.72h-1.07l-3.24-7.38 10.43 7.09 14.03 2.08-13.1 3.03-1.84-.69-3.61 1.95z" class="s"/><path d="m667.84 34.56 4.52-6.37.93 5.11-5.45 1.26zM666.8 32.2l.51-7.44-2.14 3.72 1.63 3.72z" class="ac"/><path d="m439.48 36.92-8.75-1.27-.9 2.06-17.82 1.45 15.98-8.71 7.94-12.98 3.55 19.45z" class="s"/><path d="m427.99 30.45 11.49 6.47-9.65.79-1.84-7.26z" class="ac"/><path d="m687.71 220.11 38.77-5.08-1.75 10.52-29.65 3.51-7.37-8.95z" class="az"/></g><g id="e"><path d="m210.46 284.36-20.87-6.14-41.41-1.86-25.74 3.47-15.21 3.52 50.73 12.35 52.5-11.34z" class="ao"/><path d="m75.41 276.72 60.77-4.78 48.76.75 4.65 5.53 12.15 8.02-43.78 9.46-63.94-5.73-18.61-13.25z" class="bb"/><path d="m233.19 136.12-34.8-4.24 4.01 13.58 13.39.16 17.4-9.5z" class="be"/><path d="m216.43 134.83 2.68-.43-7.26-.88-13.46-1.64 5.26 6.87 12.14-2.63.64-1.29z" class="bb"/><path d="m206.96 155.91 18.69-5.17 2.72-5.28-1.44-1.12 3.19-2.27 3.07-5.95-28.15 6.94 1.92 12.85z" class="ai"/><path d="m230.12 142.07-24.36 5.39.41 2.49 22.2-4.49 1.75-3.39z" class="ak"/><path d="m156.2 290.24-31.63-4.67-1.39-3.74 1.39-.53-2.13-1.47-1.23-3.31 2.41-.98-3.35-1.55-3.89-10.46 45.9 4.66-6.08 22.05z" class="aq"/><path d="m194.93 261.33-3.74 11.83-1.6 1.58.86.75-.86 2.73-1.81 1.2 1.21.69-1.45 4.58-31.34 5.55.55-14.77-9.87-6.07 48.05-8.07z" class="s"/><path d="m191.19 273.16-34.52 4.59-1.35 1.13 1.26 1.23 33.87-4.62.74-2.33zM189.59 278.22l-33.12 4.81-1.97.98 1.89 1.26 32.6-5.16.6-1.89z" class="ac"/><path d="m156.67 277.75-36.4-3.76.94 2.53 35.37 3.59.09-2.36zM156.47 283.03l-34.03-3.2.74 2 33.21 3.44.08-2.24z" class="s"/><path d="m96.48 228.61 13.13-4.22 2.25 10.13-9.03 2-6.35-7.91z" class="be"/><path d="M209.86 221.22 166 229.49l1.23 32.34s38.25-4.88 38.25-4.66 4.39-35.95 4.39-35.95Z" class="au"/><path d="m209.86 221.22-34.13 4.58 12.06 25.63s15.58 3.36 15.58 3.58 6.49-33.8 6.49-33.8Z" class="m"/><path d="m147.16 216.11 9.59 59.36 54.56-6.01 12.76-57.19-76.91 3.84Zm56.2 38.91-33.82 4.3-.26-7.39 3.29-15.59 20.46-8.52 14.59-3.42-4.26 30.62Z" class="ae"/><path d="m74.1 209.84 13.58 56.7 69.07 8.93 1.91-51.08-14.02-9.89-70.54-4.66z" class="ah"/><path d="m74.1 209.84 77.28-12.58 72.69 15.02-65.41 12.11-84.56-14.55z" class="ag"/><path d="m96.48 206.2 54.9-8.94 54.38 11.23-17.78 9.87-38.48 1.92-53.02-14.08z" class="bb"/><path d="m164.12 184.57 11.93 27.02 11.23-1.87-9.01-29.59-14.15 4.44z" class="af"/><path d="m170.29 193.96 9.65-2.37.79 1.49-9.83 2.2-.61-1.32zM172.57 198.96l9.12-2.46.71 1.41-9.13 2.19-.7-1.14zM173.8 203.79l9.74-2.37.44 1.31-9.65 2.55-.53-1.49z" class="au"/><path d="m171.26 217.91-15.71-2.73-14.82-8.87-5.8 5.28-11.6-2.01-5.78-41.37 46.16 7.77 7.02 25.26.53 16.67z" class="s"/><path d="m151.93 202.44-18.75-2.94 1.75 12.09 20.62 3.59-3.62-12.74zM184.59 184.05l-8.11 2.24 7.06 20.86-6.09 1.4-6.84-20.64-4.44 1.23-4.62 3.39 9.71 25.38 22.28-5.44-8.95-28.42z" class="ac"/><path d="m163.76 198.3-16.6-2.44-4.32-12.59-23.67-3.45-1.62-11.61 67.04 15.84 2.84 9.01-23.67 5.24z" class="bb"/><path d="m119.02 97.42-2.28 25.06 5.63.61 4.57-2.83 3.74-26.66-11.66 3.82z" class="bh"/><path d="m105.49 149.95-.58 7.65 1.97 1.59-2.14.61-.37 4.87 1.59 1.31-1.73.54-.4 5.3 36.08 5.38-3.15-21.75-31.27-5.5z" class="as"/><path d="m104.23 166.52 34.96 5.71-.29-2-34.53-5.56-.14 1.85zM138.1 164.69l-33.19-7.09-.17 2.2 33.65 6.88-.29-1.99z" class="k"/><path d="m159.39 139.36 43.03-12.22 5.2 49-40.26 8.53-7.97-45.31z" class="az"/><path d="m197.22 170.19-3.85-40.48 9.05-2.57 7.44 45.22-4.39 1.97h-5.44l-2.81-4.14z" class="m"/><path d="m205.47 174.33-8.25-4.14-34.21 8.71 5.61 6.32 36.85-10.89z" class="as"/><path d="m154.29 134.23-56.7-9.54-5.14 25.22 42.43 10.18 3.74 26.82 22.93 5.62v-32.44l-7.26-25.86z" class="m"/><path d="m205.53 120.2-66.47-8.24-41.47 12.73 56.7 9.54 31.18-4.52 20.06-9.51z" class="as"/><path d="m123.35 123.23 46.13 6.84 14.03-.07 7.46-5.81-47.96-7.95-19.66 6.99z" class="ac"/><path d="m205.53 120.2-51.23 14.03 7.25 58.3 51.47-13.63-7.49-58.7Zm-36.73 61.9-7.25-41.27 39.18-11.12 4.74 44.62-36.67 7.77Z" class="au"/><path d="m121.78 132.41 4.68 1.05-.47 4.68-5.03-1.29.82-4.44zM131.25 134.86l4.56 1.05-.46 5.03-4.8-1.52.7-4.56zM141.08 137.32l4.79 1.05.35 5.15-5.49-1.52.35-4.68z" class="ah"/><path d="m142.84 183.27 13.04 2.98-.53-3.51-13.1-2.92.59 3.45zM142.02 176.54l-.64-3.15 13.21 2.69.53 3.33-13.1-2.87z" class="as"/><path d="m164.59 125.97-47.51-7.26 10.53-3.24 45.07 8.54-8.09 1.96z" class="bb"/><path d="m164.59 125.97-2.5-24.2.92-1.75h6.51l3.16 23.99-8.09 1.96z" class="ai"/><path d="m119.02 97.42 43.07 4.35 7.43-1.75-38.84-6.42-11.66 3.82z" class="be"/><path d="m174.85 143.52 1.84 10.61-6.31 8.01 7.63 9.27 8.77-2.28 4.19-11.53-8.66-4.87-1.64-10.66-5.82 1.45z" style="fill:#f9fafa;fill-rule:evenodd;stroke-width:0"/><path d="m174.76 162.38 12.11-2.9-1.84 7.11-6.41 1.84-3.86-6.05z" class="ac"/><path d="m184.33 139.31 5.52-1.23.27 1.93-5.35 1.23-.44-1.93zM185.38 143.87l4.82-1.14.27 1.93-4.92.96-.17-1.75z" class="ae"/><path d="m165.99 144.04 4.39-.96.88 4.3-4.57 1.31-.7-4.65zM167.22 151.06l4.3-1.05.35 1.75-4.3.71-.35-1.41z" class="av"/><path d="m181.55 248.56-5.26 5.38-7.01-2.02-.15-4.2 3.65-3.02 8.77 3.86z" class="at"/><path d="m184.33 235.01 30.09-3.2-3.24 15.25-23.39 4.37-3.46-16.42z" class="ac"/><path d="m195.91 241.28 6.75 5.53-.4 1.92-5.46 1.02-.89-8.47z" class="bb"/><path d="M168.62 233.53h15.36l5.06 4.26-1.25 13.64-18.66-3.71-.51-14.19z" class="s"/><path d="m214.42 231.81-21.39-4-24.41 5.72 20.42 4.26 25.38-5.98z" class="aa"/><path d="m199.28 228.98-6.25-1.17-24.41 5.72 8.34 1.74 22.32-6.29z" class="bb"/><path d="m175.38 238.61 1.58.44-.79 6.23-1.67-.44.88-6.23zM178.98 239.4l1.49.44-.79 6.41-1.76-.44 1.06-6.41zM182.57 240.28l1.23.18-.7 6.4-1.49-.35.96-6.23z" class="as"/><path d="m199.06 238.21-3.15 3.07 2.98 2.11 2.98.09 1.93-4.3-4.74-.97z" class="au"/><path d="m195.91 241.28 2.37 4.39 4.38 1.14.53-3.24-2.2-1.06-5.08-1.23z" class="at"/><path d="m203.8 239.18 3.16 2.63-4.3 5-1.67-4.3 2.81-3.33z" class="ag"/><path d="m144.64 228.96-1.16 23.69-19.77-4.39-6.03-26.22 26.96 6.92z" class="au"/><path d="m150.03 230.45 2.63.62-.35 10.26-2.81-.61.53-10.27zM149.32 243.44l2.46.7-.53 10.26-2.72-.61.79-10.35z" class="az"/><path d="m219.11 134.4 1.62-44.55-5.61 2.66-1.23 28.84 1.9 14.77 3.32-1.72z" class="au"/><path d="m215.79 136.12-3.94-2.6-1.23-42.94 4.5 1.93.67 43.61z" class="m"/><path d="m215.17 94.52 8.84-1.72 5.61-13.39-19.76 2.39 5.31 12.72z" class="s"/><path d="m215.17 94.52-9.41-2.13-5.15-11.52h8.66l3.39 3.16 2.51 10.49z" class="aq"/><path d="m229.62 79.41-5.61-11-10.12.88-3.27 8.6 2.04 6.14 16.96-4.62z" class="ac"/><path d="m200.61 80.87 6.44-11.58h6.84l1.9 1.75-3.13 12.99-12.05-3.16z" class="s"/><path d="m207.05 69.29 8.07-2.81 8.89 1.93-8.22 2.63-8.74-1.75z" class="av"/><path d="m230.74 67.38 16.5-12.64 3.24 4.43-19.74 8.21zM196.78 73.64l-19.43.13 1.76 3.6 17.67-3.73zM201.13 62.29l-17.6-8.57 2.9-3.69 14.7 12.26zM213.44 57.94l-8.49-22.75 5.48-1.58 3.01 24.33zM223.72 59.96l4.37-21.48 5 2.89-9.37 18.59z" class="ag"/><path d="m135.46 245.28-6.22 16.09-43.83-4.29-1.7-7.11 37.13-6.4 14.62 1.71z" class="bb"/><path d="m138.85 237.79-16.14 6.32-19.88.12-1.23-6.89 5.68-3.81 23.88-3.92 7.69 8.18z" class="be"/><path d="m138.85 237.79-3.39 7.49-23.6 7.37-9.03-4.68v-3.74l36.02-6.44zM107.28 233.53l-28.76-5.24-11.34 9.92 10.88 6.49 24.77-.47 4.45-10.7z" class="bh"/><path d="m67.18 238.21 9.12 11.06 35.56 3.38-9.03-8.42-35.65-6.02z" style="fill:#787f8d;fill-rule:evenodd;stroke-width:0"/></g><g id="f"><path d="m841.37 265.37-4.51 5.82-3.38 1.17 1.41 1.38-3.17 4.1-2.53 1.42.87.72-5.04 6.52-31.95 5.26-6.7-14.32 4.87-11.35 50.13-.72z" class="ac"/><path d="m746.08 265.49 3.33 5.58 3.45 2-1.47 1.31 2.12 3.56 2.51 1.85-.65 1.27 2.93 4.91 34.77 5.79 2.25-19.4-10.44-13.58-38.8 6.71z" class="s"/><path d="m761.19 195.64-11.45 8 52.91 17.95v-26.86l-20.54 2.22-20.92-1.31z" class="ai"/><path d="m800.32 214.42 13.84 6.36 25.38-15.16-15.56-11.72-17.54-.75-9.89 6.85 3.77 14.42z" class="be"/><path d="m765.62 201.35 4.25-4.64 13.05-2.31 4.32 4.45-1.36 5.88-20.26-3.38z" class="as"/><path d="m803.51 198.46 2.86 6.33 17.05-3.8-5.1-5.83-8.14-.76-6.67 4.06z" class="al"/><path d="m763.66 176.52-2.47 19.12 8.68 1.07 1-.79 1.92 1.15 4.19.52 1.95-.79.8 1.13 4.43.54 2.15-.76.93 1.14 9.31 1.15 4.52-14.66v-6.67l-37.41-2.15z" class="s"/><path d="m796.55 200 6.96-1.54.24-1.51 2.69.86 3.83-.86.38-1.37 1.41.97 4.4-.97.39-1.18 1.47.76 5.66-1.26-5.06-19.43-15.41 1.99-5.73 5.25-1.23 18.29zM769.87 196.71l3.28-19.27 2.26-.25-2.62 19.88-2.92-.36zM776.98 197.59l2.77-19.49 2.12.21-2.14 19.62-2.75-.34zM784.16 198.47l2.71-19.26 2.13.48-1.76 19.16-3.08-.38z" class="ac"/><path d="m803.51 198.46-2.44-19.79h1.22l4.15 19.14-2.93.65zM810.27 196.95l-3.83-19.18 1.91-.82 3.71 19.6-1.79.4zM816.46 195.58l-4.76-19.38 2.38-1.1 4.24 20.06-1.86.42z" class="s"/><path d="m763.66 176.52 29.44-6.01 25.82 3.96-21.14 7.24-34.12-5.19z" class="av"/><path d="m749.74 203.64-3.66 61.85 49.24 6.87 8.43-37.01-3.43-20.93-50.58-10.78z" class="ak"/><path d="m800.32 214.42-5 57.94 46.05-6.99-1.83-59.75-39.22 8.8z" class="ai"/><path d="m804.97 220.25 13.43-3.6.64 46.08-17.37 2.63 3.3-45.11z" class="as"/><path d="m807.37 238.36 7.72-1.17v22.23l-8.97 1.52 1.25-22.58zM807.78 222.86l2.75-.84.23 3.33-3.18.71.2-3.2zM811.64 221.83l3.16-.74.2 3.48-3.25.62-.11-3.36zM807.67 228.8l7.2-1.63.06 1.21-7.34 1.69.08-1.27zM807.56 231.44l7.4-1.58.03 1.17-7.52 1.54.09-1.13zM807.36 233.91l7.6-1.51.04 1.22-7.72 1.55.08-1.26z" class="bd"/><path d="m823.04 224.2 4.37-1.15.14 4.43-4.42 1.2-.09-4.48zM829.91 222.4l4.28-1 .24 4.55-4.28.89-.24-4.44zM822.9 215.9l4.27-1.09.11 4.65-4.15.97-.23-4.53zM829.61 214.28l4.21-1.01.44 4.61-4.52 1.05-.13-4.65z" class="ac"/><path d="m823.48 231.4 11.06-2.37.35 31.57-11.14 1.85-.27-31.05z" class="av"/><path d="m758.11 237.04 14.26-13.45 12.54 18.4-14.75 10.85-12.05-15.8z" class="ag"/><path d="m754.02 236.15 20.61-17.67v5.11l-2.86 4.07-9.63 9.99-1.95.76-6.17-2.26z" class="ah"/><path d="m774.63 218.48 14.89 23.11-8.87.83-2.11-2.18-6.77-12.58 2.86-9.18z" class="u"/><path d="m789.52 241.59-18.65 16.47-2.48-5.19 1.28-3.61 8.87-9.02 10.98 1.35z" class="bg"/><path d="m754.02 236.15 8.12 1.5 7.53 11.61 1.2 8.8-16.85-21.91z" class="u"/><path d="m836.86 271.19-42.03 5.46-2.31.76 2 1.85 40.37-5.52 1.97-2.55zM831.72 277.84l-37.65 5.33-1.55 1.34 1.2 1.61 36.34-6.14 1.66-2.14z" class="av"/><path d="m794.83 276.65-45.42-5.58 1.98 3.31 43.13 4.88.31-2.61zM794.07 283.17l-40.56-5.23 1.86 3.12 38.35 5.06.35-2.95z" class="ac"/></g><g id="g"><path d="m507.8 288.56 14.04-14.01-8.61-6.48-12.32 5.68 6.89 14.81z" class="s"/><path d="m505.7 273.07 3.12 5.9-.02 3.62 2.98 2 3.81 7.23-7.9 8.36-31.51-20.36 29.52-6.75z" class="ac"/><path d="m476.18 279.82 30.62 16.91 3.07 5.56-2.18 1.71-7.17-2.31-3.24-2.5-4.26.08-12.35-3.99-4.49-15.46z" class="s"/><path d="m515.59 291.82 5.77 1.05 3.02 1.55 4.02-.27 17.66 3.22-1.68 10.62-22.77-5-14.81-6.26 8.79-4.91z" class="ae"/><path d="m506.8 296.73 35.16 7.27 4.1 4.58-3.32 8.39-20.01-7.19-2.4-3.04-5.53-.01-7.11-2.73-.89-7.27z" class="ah"/><path d="m511.78 284.59-3.09 1.61-5.03-4.44 5.16-2.79 2.96 5.62zM486.57 285.56l4.45-1.44 2.5 5.28-5.13-.68-1.82-3.16z" class="av"/><path d="m486.57 285.56 1.53 4.74 5.42-.9-6.95-3.84z" class="ac"/><path d="m514.8 306.73 4.03-3.04 3.48 2.63.42 3.46-7.93-3.05z" class="ae"/><path d="m493.02 299.27 3.91-3.3 3.59 5.72-7.5-2.42z" class="ac"/><path d="m521.36 292.87 2.04 3.1 5-1.82-7.04-1.28zM527.33 300.98l2.95-1.76 2.15.88.58 2.05-2.6 1.01-3.08-2.18z" class="ao"/><path d="m527.33 300.98 1.07 2.34 2.89 1.12 1.72-2.29-5.68-1.17z" class="ae"/><path d="m541.96 304 4.1-6.63 19.12-6.02 3.46-.33 3.45-1.85 12.33-3.88 3.97 5.94-3.5 3.63-30.29 8.93-12.64.21z" class="av"/><path d="m542.74 316.97 41.92-19.35 1.9-.87-3.59-4.03L541.96 304l.78 12.97z" class="ac"/><path d="M584.42 285.29 604.34 299l-16.55-3.14-4.82-3.14 1.45-7.43z" class="al"/><path d="m582.97 292.72 1.69 4.9 19.68 1.38-21.37-6.28z" class="ah"/><path d="m572.09 289.17-1.76 3.7-5.15-1.52 6.91-2.18zM559.36 299.22l2.46-3.25 5.18 1.15-3.82 2.78-3.82-.68z" class="aa"/><path d="m559.36 299.22 2.99 3.49 3.42-1.52 1.23-4.07-7.64 2.1z" class="av"/></g><g id="h"><path d="m578.23 224.88-23.69-3.14-48.84-6.25 25.15 22.58 47.38-13.19z" class="aj"/><path d="m511.73 187.98 20-.67 10.23 19.41 11.47 4.8 1.88 10.32-19.28 2.82-17.91-5.36-6.92 8.47-3.51-20.23 4.04-19.56z" class="aw"/><path d="m479.15 185.78 22.99.36 12.1 4.44-1.28 19.04-1.76 18.15-36-4.85 3.95-37.14z" class="at"/><path d="m479.15 185.78 20.82-4.09 31.76 5.62-17.49 3.27-35.09-4.8z" class="au"/><path d="m517.99 194.26 1.87-.29.76 6.32-2.34.23-.29-6.26zM522.49 193.33l2.34-.53.76 6.26-1.93.53-1.17-6.26zM527.75 192.51l1.87-.41.94 6.14-2.05.35-.76-6.08z" class="ae"/><path d="m512.52 213.77 21.75-2.72 1.76 13.61-19.68 2.88-3.83-13.77z" class="ac"/><path d="m517.99 218.42 12.57-1.84.51 2.72-12.72 1.58-.36-2.46z" class="m"/><path d="m502.14 194.5-4.8 4.09v2.75l2.81-.82 4.74-3.27-2.75-2.75zM492.72 192.8l2.69 2.07-4.15 4.07-2.17.65-.81-1.67 4.44-5.12z" class="u"/><path d="m500.15 200.52-1.93 8.72-3.5-.82 2.62-9.83 2.81 1.93zM491.26 198.94l-2.11 7.84-2.98-.7 2.11-8.16 2.98 1.02z" class="au"/><path d="m482.54 190.64 3.45.35-.58 4.27-3.57-.47.7-4.15z" class="ae"/><path d="m364.05 291.08 15.3-2.47 4.12-20.2-24.91 2.29 5.49 20.38z" class="ah"/><path d="m341.31 270.54 3.08 18.31 19.66 2.23 3.17-21.86-25.91 1.32zM442.25 298.39l-13.03-1.29-5.39-20.02 18.07 2.75-.35 4.29 2.8 3.78-2.1 10.49z" class="bd"/><path d="m441.55 284.12.7 14.27 17.47-1.85 6.39-19.17-24.56 6.75z" class="ah"/><path d="m544.04 289.17-14.12-2.41-6.52-18.69 19.27-.7 1.37 21.8z" class="bd"/><path d="m560.94 271.38-1.42 16.06-15.48 1.73-5.42-20.2 22.32 2.41z" class="ah"/><path d="m406.25 234.56 26.93 2.81 2.4 40.26-33.07-3.24 3.74-39.83z" class="aq"/><path d="m404.79 243.21 28.33 2.5.09 3.33-27.98-3.07-.44-2.76zM403.56 250.75l30.88 2.54.09 2.85-31.32-2.63.35-2.76zM402.99 257.77l31.8 2.81.35 2.4-31.4-2.72-.75-2.49zM403.12 264.79l31.85 2.63.26 2.49-30.88-2.36-1.23-2.76z" class="s"/><path d="m434.82 226.78-99.72-11.29 6.26 57.74 64.65 7.16 35.54 3.73 7.18-56.14-13.9-1.19Zm-27.66 45.98 1.93-33.9 21.76 2.37 2.46 33.9-26.14-2.37Z" class="ac"/><path d="m564.57 235.42-3.63 35.96-119.39 12.74-1.84-49.56 10.65-7.78 58.12-10.93 20.73 21.17 35.36-1.6z" class="av"/><path d="m512.96 209.62 18.01 21.19 47.26-5.93-2.06 6.3-2.13 2.8.61 1.84-2.35 7.16-46.71 2.94-16.84-23.96-69.04 12.6-6.53-18.59 34.16-4.08 45.62-2.27z" class="ae"/><path d="m439.71 234.56-112.99-7.94-1.12-8.09 2.54-.93-2.96-2.11-1.21-8.77 81.3 2.9 33.47 10.16.97 14.78z" class="as"/><path d="m438.74 219.78-114.77-13.06 119.97-11.46 69.02 14.36-74.22 10.16z" class="aj"/><path d="m576.17 231.18-46.96 5.84-18.24-21.53-71.84 10.22-2.32.78 2.47 1.49 71.22-10.03 18.01 21.64 46.14-3.77 1.52-4.64z" class="as"/><path d="m439.13 225.71-113.95-10.22.42 3.04 113.68 9.45-.15-2.27zM450.36 241.58l53.12-7.02.45 6.56-1.79 3 2.17 2.46 1.39 20.26-54.43 6.23-.91-31.49z" class="ab"/><path d="m503.93 241.12-9.92 1.42 1.05 4.92 9.25-.88-.38-5.46z" class="au"/><path d="m513.23 253.9 41.37-4.09-1.15 12.02-39.06 4.21-1.16-12.14z" class="ac"/><path d="m531.73 255.26 6.37-.64-.35 2.28-5.73.53-.29-2.17z" class="aa"/><path d="m411.16 208.15 11.91-2.83 10.23 2.48 4.8.88-15.62 3.21-11.32-3.74z" class="bb"/><path d="m447.77 204.44-9.67 4.24 10.63 3.21 28.52-2.27-5.44-2.08-24.04-3.1z" class="bb"/><path d="m427.16 168.35-10.65 2.99 6.5 3.68 7.48-.82-.76-2.4-2.57-3.45z" class="ah"/><path d="m428.45 173.27-1.29-4.92 10.94 3.28-5.79 2.45-3.86-.81z" class="bd"/><path d="m421.19 207.72-1.31-30.33 7.92-.32 1.46 9.63-1.75 22.42-6.32-1.4z" class="ah"/><path d="m426.72 178.7 3.66-1.98 3.84.76-.92 30.32-5.79 1.32-.79-30.42z" class="ae"/><path d="m426.72 178.7-1.26-2.28 2.99-3.15 9.65-1.64-3.88 5.85-7.5 1.22z" class="ah"/><path d="m428.45 173.27-11.94-1.93 3.37 6.05 6.84 1.31 1.73-5.43z" class="bd"/><path d="m426.87 183.39 4.91.93-5.06 3.78-.79-3.02.94-1.69z" class="aa"/><path d="m426.87 183.39-4.97 1.14 2.76 3.57 2.28-1.52-.07-3.19zM431.78 184.32l-1.29 21.41-3.07.68-1.96-4.07 1.48-15.76 4.84-2.26z" class="av"/><path d="m421.9 184.53 1.17 20.79 4.35 1.09-.48-19.83-5.04-2.05z" class="ac"/><path d="m459 168.35 9.74 2.99-5.53 6.31h-7.28l3.07-9.3z" class="ak"/><path d="m447.77 171.69 11.23-3.34-.26 6.67-3.68 1.17-7.29-4.5z" class="ai"/><path d="m441.42 200.41 19.95.11-.52 6.2-3.16 2.9-12.9-1.38-3.37-7.83z" class="ak"/><path d="m459.35 203.91 5.19-4.32 9.99 2.07-2.72 5.88-14.12 2.08 1.66-5.71z" class="ai"/><path d="m441.42 200.41 8.11-17.67 9.82-.94 2.02 13.87-2.02 8.24-17.93-3.5z" class="ai"/><path d="m457.69 185.14 3.86-3.72 3.24 1.97 9.74 18.27-15.18 2.25-1.66-18.77z" class="be"/><path d="m449.53 182.74-1.76-11.05 10.97 3.33 1.84 5.25-2.89 4.87-8.16-2.4z" class="ak"/><path d="m457.69 185.14 1.05-10.12 10-3.68-3.95 12.05-7.1 1.75z" class="ai"/><path d="m446.98 201.5 1.75 4.02 9.57 2.02 2.55-.82-1.5-2.81-2.63-2.41h-9.74z" class="aw"/><path d="m458.3 207.54 11.49-2.53 1.67-2.9-4.21-.77-7.9 2.57-1.05 3.63z" class="u"/><path d="m459.35 203.91 1.23-1.56-1.77-2.76-2.31-1.67h-7.77l-1.75 3.58 12.37 2.41z" class="u"/><path d="m459.35 203.91 12.11-1.8-2.72-4.86h-7.37l-2.56 2.34.54 4.32zM448.73 197.92l9.49-3.05 1.57 1.32-.98 3.4-10.08-1.67z" class="as"/><path d="m458.81 199.59 9.93-2.34-10.52-2.38.59 4.72z" class="al"/></g><g id="i"><path d="m250.54 276.55-.96 8.17 8.95-8.43-7.99.26zM279.55 269.01l-12.07 13.24-2.54.39 1.97 2.88 8.87-6.15 4.38-4.4-.61-5.96z" class="ac"/><path d="m281 285.63-6.2 9.9h5.93l3.81-8.6-1.96-4.81-1.58 3.51zM296.32 287.91l-3.18 9.45h5.93l.84-9.01-2.69-2.87-.9 2.43z" class="as"/><path d="m277.77 273.91-1.99 5.46 6.27 5.58 4.96-1.84 1.2-1.42-2.02-6.62-8.42-1.16zM277.42 255.07l-6.09 3.71-.58 3.02 2.69 1.86 5.03-1.86-1.05-6.73z" class="ag"/><path d="m287.3 252.26 3.83 6.96.61 3.9 3.04 2.71 1.36 3.26-2.38 6.79-5.55 5.81-10.44-7.78-1.99-22.56 6.9-2.66 4.62 3.57z" class="al"/><path d="m273.44 244.28-8.45-6.04 4.22-11.18 3.1 4.74 1.13 5.3v7.18zM283.5 237.7l-2.63-6.75 6.49-6.93.44 4.03-.7 6.32-3.6 3.33z" class="s"/><path d="m273.44 244.28-3.89-7.41 2.76-5.07 3.47 5.3-2.34 7.18zM287.8 228.05l-3.26 3.34 1.63 5.14 2.04-4.73-.41-3.75z" class="aq"/><path d="m296.6 240.53-9.3 11.73-11.52-.91 3.63-9.24 10.83-4.91 4.14-.33 2.22 3.66z" class="as"/><path d="m273.44 244.28 14.77-12.48 4.53 2.31 4.68-1.07-.82 7.49-3.63-1.8-11.34 5.55-5.85 7.07-2.34-7.07z" class="ao"/><path d="m292.97 238.73-1.48-4.36 2.27.79-.79 3.57z" class="ab"/><path d="m293.45 236.94-5.24-5.14 9.21 1.24-3.97 3.9z" class="av"/><path d="m291.13 259.22-3.33 4.44v2.29l3.33 1.08 3.65-1.2-3.65-6.61z" class="ag"/><path d="m287.8 263.66-4.91 1.48v1.89l1.65 1.29 6.59-1.29-3.33-3.37z" class="as"/><path d="m282.89 265.14-3.34 5.24 3.34 2.5 1.65-4.56-1.65-3.18z" class="ag"/><path d="m271.33 258.78-6.02.59-.32 1.9 1.08 1.41 7.37.98-2.11-4.88z" class="as"/><path d="m264.02 270.88 5.22-3.94-5.22-12.37-5.35-3.22-2.02 5.23 2.39 4.64 2.97 1.97.14 4.05 1.87 3.64z" class="s"/><path d="m259.04 261.22 5.03-1.36 1.92 3.26-3.84 4.12-3.11-6.02z" class="as"/><path d="m264.02 254.57-15.14-34.44-3.63 17.22 9.39 21.43 9.38-4.21z" class="ao"/><path d="m255.78 252.26.87-2.45 2.75 1.23-1.22 2.57-2.4-1.35z" class="as"/><path d="m296.14 269.09-7.93 12.6 7.69-.76 4.23-2.32-3.99-9.52z" class="ag"/><path d="m300.13 278.61-11.92 3.08 4.95 2.34 4.95-.56 2.02-4.86z" class="ah"/><path d="m288.21 281.69 8.11 6.22 3.59.44-1.8-4.88-9.9-1.78z" class="ae"/><path d="m267.48 282.25-12.2-9.9-4.74 4.2 16.37 8.97.57-3.27z" class="av"/><path d="m275.78 279.37 11.23 3.74-2.47 3.82-3.54-1.3-5.22-6.26z" class="al"/></g><g id="j"><path d="m380.97 110.41-4.16 4.05 1.82 8.12 6.19-8.42-3.85-3.75z" class="ar"/><path d="m405.82 118.25-7.17-9.4-5.83 1.56.72 7.05 12.28.79z" class="x"/><path d="m362.3 159.7 16.61-3.59 12.66 2.56 3.37 8.99-22.77 13.56-9.86-9.45-.01-12.07zM302 204.75l14.75 8.39 1.68 4.43-4.26 6.58-18.83-5.6 6.66-13.8z" class="z"/><path d="m308.71 175.09-18.43 28.09 5.06 15.37 24.54-15.49v-15.42l-11.17-12.55z" class="bh"/><path d="m358.87 172.42-9.38-8.09-25.75 17.17 20.65 13.85 8.13 2.5 6.35-7.37v-18.06z" class="bd"/><path d="m347.24 162.64 8.66 12.45-12.9-1.2-11.94 8.31-7.32-14.54 23.5-5.02z" class="ah"/><path d="m336.08 308.58 3.34-5.44-3.59-9.13-4.13 4.66 2.07 9.91h2.31zM377.75 303.79l1.87-7.21-2.53-4.72-3.02-2.72-1.67 5.61 2.64 9.04h2.71z" class="aw"/><path d="m365.57 229.55 34.96 34.19-26.89-51.37-5.95 5.56-2.12 11.62z" class="l"/><path d="m367.69 227.31 32.84 36.43-19.65 19.61-10.15-28.02-3.04-28.02z" class="z"/><path d="m309.61 282.74 71.27.61-6.19-15.76-50.31-3.44-14.77 18.59z" class="ak"/><path d="m344.28 293.05.11-4.2-7.34-3.85-1.98 6.72.76 2.29 5.85 5.25 2.6-6.21zM381.79 287.33l-3.92-16.63-10.57-9.27-2.35 14.09 9.12 13.62 5.89 7.15 1.83-8.96z" class="q"/><path d="m377.87 270.7-12.3-3.28-3.84 3.28 3.22 4.82 12.92-4.82zM344.39 288.85l-11.47-3.56 2.15 6.43 9.32-2.87z" class="ba"/><path d="m374.07 289.14 7.72-1.81 16.9 16.46h-15.9l-8.72-14.65zM335.83 294.01l8.45-.96 8.1 15.53h-16.3l-.25-14.57zM328.04 222.73l26.04-1.85 12.29 10.96 11.5 38.86-33.48 1.42-16.35-49.39z" class="bd"/><path d="m347.24 162.64 11.63 27.84 10.09-.98 3.21-8.28-9.87-21.52-15.06 2.94z" class="o"/><path d="m347.24 162.64 11.63 27.84 5.19-19.02-16.82-8.82z" class="l"/><path d="m346.72 224.89 31.15 45.65-10.18-43.23-10.1-3.3-10.87.88z" class="ah"/><path d="m364.81 200.72-5.93-10.22-14.49 4.85-4.38 13.56 6.72 15.81.15.19 20.81 2.4-2.88-26.59z" class="at"/><path d="m323.74 167.66 8.98 17.94 11.67 9.75-3.08 14.77 5.41 14.77-2.33 63.96-34.78-6.11 22.46-61.86-12.19-17.82-11.17-27.97 15.03-7.43z" class="be"/><path d="m346.72 224.89-37.11 57.85 18.43-60.01 9.98-1.85 8.7 4.01z" class="z"/><path d="m323.74 167.66-2.69 17.5 23.34 10.19-20.65-27.69z" class="l"/><path d="m293.29 97.51-9.72 21.26-19.39 23.06 8.2-40.1 20.91-4.22z" class="av"/><path d="m282.59 187.64-18.39-14.35 18.13-4.39 6.58 2.8-6.32 15.94z" class="s"/><path d="m293.29 97.51-29.11 44.32 25.83-6.43 3.28-37.89z" class="ac"/><path d="m314.34 156.81-31.75 30.83-.36-44.14 32.11 13.31z" class="aq"/><path d="m264.18 141.83 18.59-8.31 13.39 5.58 12.22 8.17 5.96 9.54-50.16-14.98z" class="ad"/><path d="m282.77 133.52 23.74 14.26-9.53-16.76-14.21 2.5z" class="aq"/><path d="m353.21 87.84 3.77 3.73 15.19 50.73-20.11 7.52-17.79 15.86-9.61-3.14-22.45-30.15-4.75-40.42 41.09-16 14.66 11.87z" class="ar"/><path d="m343 173.89 2.4-6.38-8.9-9.4-17.23-51.21-6.96-6.62-17.04 14.94 11.24 32.56 3.22 2 4.61 7.03 9.4 10.85 19.26 6.23z" class="q"/><path d="m328.53 158.67 16.87 8.84 6.66-17.69-23.53 8.85z" class="ba"/><path d="m312.31 100.28 22.23-6.6 7.34-7.3-2.59-12.34-44.02 16.7 6.96 11.77 10.08-2.23z" class="av"/><path d="m306.51 147.78.66-4.75h3.16l4.01 13.78-7.83-9.03z" class="ba"/><path d="m325.08 108.61 2.3.7 3.53-2.88 5.24.28-6.46-2.55-4.61 4.45zM347.75 101.84l1.95 1.19 2.54-3.46 5.18.57-5.57-2.45-4.1 4.15z" class="an"/><path d="m340.01 138.08 6.65 2.38 8.75-3.22-7.66-.4-7.74 1.24z" style="fill:#9471a4;stroke-width:0"/><path d="m361.39 117.99-7.33 4.59-1.82-3.45 9.15-1.14zM329.36 127.7l17.94-1.93.18-4.96-18.12 6.89zM325.83 116.05l14.97.68-1-6.98-13.97 6.3zM358.56 106.13l-4.48 6.36-3.4-5.28 7.88-1.08z" class="x"/><path d="m339.29 74.04-4.75 19.64 18.67-5.84-13.92-13.8z" class="s"/><path d="m300.24 124.47 10.44 13.11 5.03-6.64-10.98-15.46 7.58-15.2-17.04-9.54-12.5 42.78 8.52.8 3.86.36 5.09-10.21z" class="ad"/><path d="m300.24 124.47-2.42 6.55-2.02-8.42 25.89-8.67 2.98 2.49-.6 4.45-23.83 3.6z" style="fill:#4a3554;stroke-width:0"/><path d="m355.41 126.58-2.89 2.14h-4.22l-2.09-6.16-5.41-12.81 9.88-2.54 2.65 13.23 2.08 6.14z" style="fill:#e8cab6;stroke-width:0"/><circle cx="337.2" cy="117.98" r="1.97" class="bf"/><circle cx="359.24" cy="111.15" r="1.97" class="bf"/><path d="m306.51 147.78 6.17-7.68-12.44-15.63-5.09 10.21 11.36 13.1z" class="ar"/><path d="m301.39 130.08 4.85 6.63-8.47-2.08 3.62-4.55z" class="ba"/><path d="m315.77 143.56-2.75 2.47-5.24-5.85 2.9-2.6 5.09 5.98z" style="fill:#fff;fill-rule:evenodd;stroke-width:0"/><path d="m355.41 126.58-2.25 3.86-4.86-1.72 7.11-2.14z" style="fill:#8b6651;stroke-width:0"/><path d="m353.39 120.42 17.86-5.42-4.88-14.59-44.68 13.53 5.01 14.58 19.46-5.93-3.86-11.52 7.12-2.19 3.97 11.55Zm-24.65 4.09-2.91-8.47 13.38-4.06 2.84 8.47-13.31 4.06Zm38.4-11.64-11.71 3.55-2.91-8.47 11.78-3.55 2.84 8.47ZM340.01 138.08l15.4-.84-5.52-2.06-1.69.5-2.03-.99-6.16 3.39z" class="v"/><path d="m358.87 190.48 8.82 36.83 5.95-14.94-1.47-31.15-13.3 9.26z" style="fill:#89909b;stroke-width:0"/><path d="m319.88 203.06 8.16 19.67 18.68 2.16-2.33-29.54-24.51 7.71z" class="ak"/><path d="m316.75 213.14 5.81-3.62 1.18 9.03-2.69 5.1-6.88.5 2.58-11.01z" class="q"/><path d="m322.56 209.52 12.72 8.39-9.58 12.44-4.65-6.7 1.51-14.13z" class="ar"/><path d="m378.91 156.11 5.56-19.03 9.16-3.29 3.77 4.86-2.46 29.01-16.03-11.55z" class="bh"/><path d="m375.31 127.7 9.16 9.38 12.93 1.57-4.58-14.4-17.51 3.45z" class="z"/><path d="m405.82 118.25 1 9.45-9.42 10.95-6.08-12.07 6.27-5.77 8.23-2.56z" class="o"/><path d="m381.19 95.91 5.5.4-2.86 6.72-2.86-3.62.22-3.5z" class="z"/><path d="m377.44 99.75 3.75-3.84 1.56 3.84-1.78 2.76-3.53-2.76zM381.96 113.73l-6.65 13.97 16.01-1.12-1.14-14.09h-5.49l-2.73 1.24z" class="o"/><path d="m392.82 110.41 13 7.84-14.5 8.33-3.25-12.42 1.21-3.09 3.54-.66z" class="l"/><path d="m377.44 99.75 4.52 13.98 6.11.43-.28-8.92-5.04-5.49h-5.31z" class="z"/><path d="m382.75 99.75 3.94-3.44 6.13 14.1-4.75 3.75-5.32-14.41z" class="o"/><path d="m388.93 117.46 12.85.51-6.33 3.85h-5.38l-3.38-.99 2.24-3.37z" class="aa"/><path d="m388.93 117.46-7.96 2.49 5.72 3.5 3.38-1.63-1.14-4.36z" class="av"/><path d="m401.78 117.97 1.61 1.67-4.32 4.24-7.75 2.7-1.25-1.79v-2.97l11.71-3.85z" class="av"/><path d="m390.07 121.82 1.25 4.76-4.63 1.87-7.43-1.03 1.71-7.47 9.1 1.87zM403.39 119.64l.93 6.31-8.58 9.41-2.92-1.97-1.5-6.81 12.07-6.94z" class="ac"/><path d="m379.26 127.42 12.06-.84 4.42 8.78-10.22-.67-6.26-7.27z" class="s"/><path d="m398.65 108.85-4.86-3.33-3.61 6.97 2.65 1.97 5.82-5.61z" class="ar"/><path d="m395.12 127.38 1.06-1.19 1.19 1.44-1.44 1.38-.81-1.63zM387.39 131.48l1-1.13 1.63.94-1.63 1.75-1-1.56zM385.89 129.54l1.07-.38-.57-1.06-1.06.63.56.81zM386.8 124.32l.75-.81.81 1-1.06.56-.5-.75z" class="ao"/></g></svg>