<svg xmlns="http://www.w3.org/2000/svg" id="a" viewBox="0 0 900 320"><defs><style>.j{fill:#576071}.aa,.ab,.ac,.ad,.ae,.af,.ag,.ah,.ai,.ak,.al,.am,.an,.ao,.ap,.aq,.ar,.as,.at,.au,.av,.aw,.ax,.ay,.az,.j,.k,.l,.m,.n,.o,.p,.q,.r,.s,.t,.u,.w,.x,.y,.z{stroke-width:0}.k{fill:#1c5a3f}.l{fill:#5a753d}.m{fill:#89909b}.n{opacity:.1}.aq,.n{fill:#1d2432}.o{fill:#e6e97c}.p{fill:#709d52}.q{fill:#8b6651}.r{fill:#dfbda5}.s{fill:#446125}.t{fill:#216a4b}.u{fill:#309b6e}.w{fill:#c3987b}.x{fill:#eeeff1}.y{fill:#267a56}.z{fill:#99c26d}.aa{fill:#44622d}.ab{fill:#5bb68f}.ac{fill:#bbbfc6}.ad{fill:#70bf9d}.ae{fill:#dddfe2}.af{fill:#a0cf7e}.ag{fill:#28835c}.ah{fill:#1e6245}.ai{fill:#4b5464}.ak{fill:#c0db8e}.al{fill:#648e43}.am{fill:#b8c744}.an{fill:#237250}.ao{fill:#47ad82}.ap{fill:#d9e256}.aq{opacity:.15}.ar{fill:#787f8d}.as{fill:#54b08b}.at{fill:#8e7e73}.au{fill:#86b264}.av{fill:#2d9368}.aw{fill:#232a38}.ax{fill:#2b8b62}.ay{fill:#33a474}.az{fill:#738d57}</style></defs><g id="b"><path d="m44.26 252.19 31.61-5.95 42.24 33.91-47.45-5.77-38.35-14.09 11.95-8.1zM89.99 286.09l20.1-2.76 11.65 4.48-23.14 3.61-8.61-5.33zM49.46 286.36l8.9-1.54 4.35 1.54-6.09 1.56-7.16-1.56zM64.25 294.48l8.34-1.35 4.33 2.58-6.87 1.21-5.8-2.44zM115.28 298.17l9.48-1.46 6.71 2.16-6.2 1.16-9.99-1.86zM133.75 291.33l17.73-3 24.92 3.44-3.96 7.1-29.99-2.16-8.7-5.38zM170.55 271.23l33.96-15.4 50.47 9.62-8.07 10.78-42.99 2.21-33.37-7.21zM241.4 285.49l-28.09 4.64-49.66-7.76 40.27-3.93 15.05 1.48 22.43 5.57zM243.88 308.55l15.36-2.56 8.84 3.47-12.09 1.63-12.11-2.54zM275.12 284.29l36.58-5.85 19.36-6.79 51.96 10.72 22.97 3.12-92.44 8.47-38.43-9.67zM377.64 299.14l19.45-4.33 12.55 4.06-18.19 3.93-13.81-3.66zM410.71 277.6l11.99-2.51 15.02 3.35-15.02 2.61-11.99-3.45zM470.15 256.75l12.33-4.33 19.02 3.17-17.73 3.01-13.62-1.85zM561.03 232.17l-43.92-9.35-45.29 8.64-23.62 9.29 82.62-.4 17.03-.95 13.18-7.23zM549.81 301.45l-22.05-3.02-43.42 7.12-10.79 6.84 45.59 1.49 25.53-6.17 5.14-6.26zM549.81 307.71l9.2-3.11 14.69 3.11-13.2 2.15-10.69-2.15zM524.27 286.82l-1.12-4.01-6.04 2.26-12.4-6.58-27.06-6.65 7.6-5.81 31.86-1.95 37.94-5.11 25.69-3.38 44.87 5.17 52.05 7.18-16.87 7.92-45.85 7.75-26.54-.64-9.81-2.38-54.32 6.23zM595.63 297.44l12.03-2.59 17.23 1.04-13.74 5.25-15.52-3.7zM627.42 305.82l8.89-3.02 14.64 3.36-14.97 2.47-8.56-2.81zM645.9 294.44l8.68-2.85 16.82 2.69-13.44 3.16-12.06-3zM743.89 256.83l-22.78-8-12.64 3.68-5.3 11.24 34.21-2.58 6.51-4.34zM732.63 224.64l-32.95-6.31-19.29 5.4 24.34 5.99 19.79-.52 8.11-4.56zM690.71 299.04l4.44-1.05 11.01 1.16-9.96 2.3-5.49-2.41zM712.47 293.52l7.83-2.23 15.28 2.99-13.6 2.17-9.51-2.93zM753.51 270.71l38.42 3.24 15.21 5.86-22.14 6.18-37.21-3.2-15.25 1.58-20.51-5.78 41.48-7.88zM815.37 292.04l4.97-1.62 10.17 2.54-9.46 1.98-5.68-2.9zM861.04 244.82l-28.39-4.35-33.42 22.15 53.56-4.98 8.25-12.82z" class="n"/></g><g id="c"><path d="m203.79 210.57 3.44 28.24h5.79l.29-46.38-9.52 18.14z" class="y"/><path d="m223.04 145.59 8.51 11.47 30.01 42.12-11.18 2.2-11.55-2.44-4.81 5.67-32.06 5.96-.42-56.52 21.5-8.46z" class="ad"/><path d="M201.96 210.57 149 205.88l46.89-69.24 11.5 25.78-5.43 48.15z" class="ao"/><path d="m250.38 201.38-21.27-25.09 4.91 28.32 16.36-3.23z" class="ab"/><path d="m231.55 157.06-25.15 18.58-20.63-26.26 45.78 7.68z" class="n"/><path d="m222.46 101.12 26.57 52.06-4.52 1-2.27-1-.63 1.64-4.63 1.03-2.96-2.67-2.47 3.88-24.16 5.36 5.04-63.91 10.03 2.61z" class="ad"/><path d="m210.9 96.62-5.27 3.59-33.72 40.59 35.48 21.62 8.83-59.25-5.32-6.55z" class="ao"/><path d="m236.98 155.85-10.69-22.54 5.26 23.75 5.43-1.21zM241.61 154.82l-2.78-9.64 5.68 9-2.9.64z" class="ab"/><path d="m222.46 101.12-9 20.58-7.83-21.49 16.83.91z" class="n"/><path d="m218.32 50.19 27.35 43.31-14.04 4.61-5.49-2.51-3.68 5.52-6.24 2.05-9.61-34.24 3.99-22.85 7.72 4.11z" class="ad"/><path d="m216.22 103.17-10.59-2.96-3.96-5.91-5.78 3.19-9.22-2.57 20.77-43.93 5.2-6.78-.98 7.59 4.56 51.37z" class="ao"/><path d="m222.46 101.12-1.59-22.64 10.76 19.63-9.17 3.01z" class="ab"/><path d="m205.63 100.21 1.81-32.57-11.55 29.85 9.74 2.72z" class="u"/><path d="m218.32 50.19-5.73 12.1-5.15-11.3 10.88-.8z" class="n"/><path d="m205.62 19.24 21.08 28.88-4.27 1.06-2.79-1.28-1.32 2.29-6.66 1.61-5.53-11.4-.51-21.16z" class="ad"/><path d="m205.62 19.24-6.61 30.3 12.65 2.26-6.04-32.56z" class="ao"/><path d="m218.32 50.19-3.41-13.07 7.52 12.06-4.11 1.01z" class="ab"/><path d="m707.27 199.99-3.73 25.17h-3.08l-3.94-33.05 10.75 7.88z" class="y"/><path d="m695.92 114.87-43.47 71.57 54.82 13.55 5.53-90.62-16.88 5.5z" class="ad"/><path d="m723.13 117.17 34.41 76.34-50.27 6.48-.02-80.21 8.24-12.01 7.64 9.4z" class="ao"/><path d="m695.92 114.87 11.33 22.25 15.88-19.95-27.21-2.3z" class="n"/><path d="m711.26 52.38-34.35 54.25 12.32 5.34 4.88-.92 1.81 3.82 11.33 4.91 10.56-64.45-6.55-2.95z" class="ad"/><path d="m720.51 50.97 19.68 63.41-9.05 1.48-4.51-3.87-3.5 5.18-15.88 2.61 8.65-61.37 4.61-7.44z" class="ao"/><path d="m695.92 114.87 4.3-17.28-11.01 14.44 6.71 2.84z" class="ab"/><path d="m708.86 55.17 5.6 12.68 8.39-11.74-13.99-.94z" class="n"/><path d="m715.23 11.81-15.09 39.36 15.76 7.24 3.97-14.56-4.64-32.04z" class="ad"/><path d="m715.23 11.81 15.88 41.69-15.21 4.91-.67-46.6z" class="ao"/><path d="m723.13 117.17-2.72-29.93 10.73 28.62-8.01 1.31z" class="u"/><path d="m170.1 156.71 30.63 38.21-16.59 4.05-5.94-1.91-6.29 4.9-3.69.9-4.42-2.61-2.81 4.38-20.61 5.04 2.48-53.41 27.24.45z" class="ad"/><path d="m138.24 154.05-21.92 22.49-16.5 18.2 40.56 11.28 5.98-44.37-8.12-7.6z" class="ao"/><path d="m164.29 157.92-19.56 15.79-10.54-15.5 30.1-.29z" class="n"/><path d="m147.83 100.13 39.6 52.97-12.95 2.7-7.6-1.92-2.59 4.04-17.93 3.73-6.18-20.38 2.16-38.1 5.49-3.04z" class="ad"/><path d="m140.18 104.82-32.41 45.93 11.99 3.39 3.99-2.53 1.37 4.04 2.87.81 4.38-2.41 1.82 4.16 12.17 3.44-1.83-53.36-4.35-3.47z" class="ao"/><path d="m152.72 106.67-7.84 11.73-6.34-11.25 14.18-.48z" class="n"/><path d="m150.57 55.16 16.42 48.68-9.36 1.85-3.24-3.33-1.67 4.31-8.19 1.62-1.67-24.23 7.71-28.9z" class="ad"/><path d="m150.57 55.16-22.02 50.09 5.24.99 2.97-3.07 1.78 3.98 5.99 1.14 6.04-53.13z" class="ao"/><path d="m164.29 157.92-7.86-31.72 18.05 29.6-10.19 2.12zM152.72 106.67l-.29-17.49 5.2 16.51-4.91.98zM162.07 171.03l22.07 27.94-12.23 2.99-9.84-30.93zM155.75 167.61l12.47 35.25-7.23 1.75-5.24-37z" class="ab"/><path d="m134.19 158.21 2.57-26.07-8.77 24.32 6.2 1.75zM138.54 107.15l4.32-23.09-9.07 22.18 4.75.91zM125.12 155.65l3.4-17.57-8.76 16.06 5.36 1.51z" class="u"/></g><g id="d"><path d="m613.5 230.59 11.35 2.9 4.12-3.81 2.15 5.41 8.86 2.26 11.78-32.76-1.58-13.36-27.12-2.86-9.56 42.22zM663.54 190.19h-15.4l-3.28-5.81 9.61-18.76 16.11.3 6.8 3.76-13.84 20.51z" class="ar"/><path d="m646.81 194.14 3.37-2.91 13.36-1.04 8.82-20.51v-2.78l18.35-.98 10.12 47.21 3.9 16.59-11.55 1.36-4.75-4.69-3.78 5.7-9.73 1.14-2.56-2.71-3.12 3.38-7.03.83-2.88-2.37-3.77 3.15-15.58 1.84 6.83-43.21z" class="j"/><path d="m677.38 166.58 5.09 42.19 2.18 23.32 8.53-1.01-13.13-64.5h-2.67zM656.84 190.19l5.37 44.54-6.65.78-1.86-44.28 3.14-1.04zM663.54 190.19l11.38 43.04-5.69.58-5.69-43.62z" class="ai"/><path d="m631.12 235.09 7.76-44.9h-3.31l-10.72 43.3 6.27 1.6zM632.63 189.38l-7.78 29.46 3.89-29.87 3.89.41z" class="j"/><path d="m679.26 215.09-3.4-26.72-.94 28.74 5.47 15.48-1.13-17.5z" class="ai"/><path d="m623.06 188.37 21.8-3.99 18.68 5.81-16.73 3.95-23.75-5.77zM654.47 165.62l12.6-3.25 23.64 3.55-18.35 3.76-17.89-4.06z" class="au"/><path d="m142.34 249.85 20.19-2.4 2.63-4.54 6.75 3.42 20.38-2.42-17.09-54.29-45.71 2.89-2.11 17.27 14.96 40.07z" class="m"/><path d="m133.32 197.06-3.83-8.46-42.44 4.85-11.18 49.43 66.47 6.97-9.02-52.79zM162.53 247.45l-10.3-53.91 2.75-2.2 16.93 54.99-9.38 1.12zM147.76 193.45l3.72 25.27-10.25-25.27h6.53z" class="j"/><path d="m117.35 246.24 9.74-50.22-10.68-2.57-5.92 51.79 6.86 1z" class="ai"/><path d="m175.2 189.62-41.69-4.73-46.46 8.56 46.27 3.61 41.88-7.44z" class="au"/><path d="m246.91 276.23-3.98-21.76 3.68-16.31 45.08-2.74 5.86 30.29-8.04 1.65-5.07-.69-5.57 2.9-5.47 1.15-4.21-.56-2.04 1.86-3.17.66-3.06-1.06-2.88 2.29-11.13 2.32z" class="ar"/><path d="m251.06 242.91-12.72-5.05-36.8-1.28-10.83 33.78 36.3 3.79 6.47-5.71 2.06 6.6 11.37 1.19 4.15-33.32zM289.51 267.36l-10.33-29.63-6.53-2.31 6.22 34.15 10.64-2.21zM273.4 270.72l-7.15-30.61.9 31.91 6.25-1.3zM263.98 272.68l-3.24-16.27-2.7 17.5 5.94-1.23z" class="j"/><path d="m235.54 275.09 5.86-33.42-2.89-2.74-11.5 35.22 8.53.94z" class="ai"/><path d="m291.69 235.42-40.63 7.49-49.52-6.33 45.07-7.22 45.08 6.06z" class="au"/><path d="m165.12 271.47-9.78 1.8-3.86-2.11-2.11 3.22-5.67 1.04-5.46-2.89-2.49 4.36-5.94 1.1-2.75-2.11-1.91 2.97-7.04 1.3-12.65-49.38 2.88-15.62 36.74-1.1 20.04 57.42z" class="ar"/><path d="m118.11 280.15-25.26-6.73-2.43-3.94-1.69 2.84-10.65-2.84-3.84-6.78-8.61 3.46-13.78-3.67 16.27-48.44 31.03.74 13.59 3.93 5.37 61.43zM137.5 215.15l17.84 58.12-5.97 1.11-11.87-59.23zM128.66 215.15l15.04 60.27-7.95 1.47-12.21-61.74h5.12z" class="j"/><path d="m85.65 221.77-20.02 44.39 12.45 3.32 7.57-47.71zM88.73 272.32l8.52-58.98 5.6 2.52-10 57.56-4.12-1.1z" class="ai"/><path d="m145.08 214.05-34.94-4.27-42.02 4.27 44.62 4.67 32.34-4.67z" class="au"/><path d="m129.81 277.99-4.32-16.93-.34 17.79 4.66-.86z" class="j"/><path d="m128.9 189.94 5.71-.94.91-1.99 2.72 1.4 2.05-.33.79-1.2 1.78.77 6.14-1-4.27-12.94-18.8 3.38-.44 6.15 3.41 6.7z" class="ar"/><path d="m128.9 189.94-4.14-.36-1.39-.98-1.53.73-1.85-.15-.56-.58-.71.47-5.38-.47 2.98-12.06 8.44-.23 2.62 1.88 1.52 11.75zM134.61 189l-1.81-12.69 1.61-.67 3.83 12.77-3.63.59zM140.29 188.08l-2.84-12.44 5.41 12.01-2.57.43zM139.03 174.67l3.31 5.44-1.65-5.82-1.66.38z" class="j"/><path d="m124.76 189.58-.67-11.88-2.25 11.63 2.92.25zM119.99 189.18l2.22-11.76-2.22-.33-1.27 11.98 1.27.11z" class="ai"/><path d="m144.73 173.71-17.35 4.48-11.06-1.65 12.35-3.45 16.06.62z" class="au"/><path d="m389.45 237.25 11.38 1.98 5.87-3.01 3.35 4.61 12.52 2.18 6.39-1.64 6.64 3.91 11.97 2.08 11.4-34.25v-18.37h-58.21l-11.31 42.51z" class="ar"/><path d="m447.57 247.36 26.81-2.74 11.12-3.46 10.11 1.86 10.15-.77 3.15-4.05 6.73 3.3 15.86-1.2-10.81-47.73-56.96 1.86-11.37 7.93-4.79 45zM422.57 243.01l9.68-43.23 10.95-1.83-7.6 47.33-13.03-2.27zM400.83 239.23l15.88-42.13-6.66 43.73-9.22-1.6z" class="j"/><path d="m466.53 200.33 7.85 44.29 21.23-1.6-11.82-47.83-17.26 5.14zM505.76 242.25l-7.89-46.41 2.07-3.27 15.7 48.93-9.88.75z" class="ai"/><path d="m400.76 194.74 43.92-9.18 76.01 7.01-68.33 9.79-51.6-7.62z" class="au"/><path d="m433.23 192.57 5.53-15.38 24.51 1.53-.02 9.71-7.4 5.97-7.59-.62-2.22-2.78-4.29 2.26-8.52-.69z" class="ar"/><path d="m455.85 194.4 9.22-.87 1.46-1.93 2.13 1.6 2.53-.24 1.22-1.79 2.95 1.4 2.53-.24 2.54-1.71 4.13 1.09 13.31-1.25-9.66-13.27-19.55.72-7.93 3.74-4.88 12.75zM441.75 193.26l11.36-16.07 1.66 1.53-6.51 15.06-6.51-.52z" class="j"/><path d="m471.19 192.96-2.53-12.6 2.12-2.11 4.58 14.32-4.17.39zM477.89 192.33l-3.51-14.08 10.18 13.46-6.67.62zM468.66 193.2l-2.48-7.41-1.11 7.74 3.59-.33z" class="ai"/><path d="m438.76 177.19 21.97-3.01 27.48 3.01-27.48 4.46-21.97-4.46z" class="au"/><path d="m700.54 231.07-28.18-2.84-8.82 27 8.82 1.9 3.73-1.54 3.82 2.05 23.26 6.11-1.93-20.13-.7-12.55z" class="ar"/><path d="m696.58 235.09 8.03-5.99 19.91.1 7.2 28.88-16.44 3.26-3.68-3.53-2.76 4.81-5.67 1.13-6.59-28.66zM672.36 257.13l10.03-26.06-4.11 25.63-5.92.43z" class="j"/><path d="m708.84 262.62-6.44-30.47 4.18.18 8.7 29.01-6.44 1.28zM710.2 231.07l8.75 24.52-2.95-25.91-5.8 1.39z" class="ai"/><path d="m672.36 228.23 23.99-9.39 28.17 10.36-27.94 5.89-24.22-6.86z" class="au"/><path d="m647.11 254.13 3.87 1.02 8.11-2.32 1.41 4.81 5.91 1.54 23.07-45.01-23.09-2.54-19.28 42.5z" class="ar"/><path d="m666.41 259.18 13.5-1.54 6.08-25.55 6.26-1.5 2.9-1.82 3.29.35 2.8-.67.24-1.19 1.69.73 2.99-.71-5.33-14.15h-13.77l-4.67 2.8-15.98 43.25zM660.5 257.64l10.9-44.51-20.42 42.02 9.52 2.49zM675.77 213.88l-5.19 19.79 8.68-20.54-3.49.75z" class="j"/><path d="m692.25 230.59-3.56-16.71 1.78-.75 7.97 15.99-6.19 1.47zM701.24 228.45l-6.09-15.33 8.02 14.87-1.93.46z" class="ai"/><path d="m700.83 213.13-18.44 2.8-16-4.3 16.08-2.86 18.36 4.36z" class="au"/><path d="m799.23 262.62-12.98-2.76-2.62-3.15-4.13 1.71-3.96-.84-.43-3.12-2.52 2.5-16.03-3.42 17.55-29.65 43.29.46-4.55 18.27-13.62 20z" class="ar"/><path d="m799.23 262.62 19.99-3.78 1.61-3.23 3.09 2.34 6.54-1.24 1.52-2.25 3.85 1.24 3.03-.58.78-1.58 3.35.8 7.5-1.42-7.98-28.57-27.66-.23-4.25 3.88-11.37 34.62zM786.25 259.86l9.23-33.62-15.98 32.18 6.75 1.44zM775.54 257.58l11.85-33.46h-6.98l-7.82 32.84 2.95.62z" class="j"/><path d="m842.99 254.34-12.87-30.1-4.65 1.05 4.99 31.42 5.37-1.01-3.03-14.23 6.06 13.65 4.13-.78zM823.92 257.95l-4.51-25.1-.19 25.99 4.7-.89zM815.99 225.35l.38 17.27-2.96-14.94 2.58-2.33z" class="ai"/><path d="m842.51 224.35-43.77-7.1-24.63 6.64L810.6 228l31.91-3.65z" class="au"/></g><g id="e"><path d="m508.03 131.86-57.94-38.38 7.46-3.5 53.53 37.18-3.05 4.7z" class="l"/><path d="m530.43 138.89-22.4-7.03v-2.87l3.05-1.83 14.82 1.83 4.53 9.9z" class="aa"/><path d="m511.08 127.16-23.87-40.45-5.93 2.67 26.75 42.48 3.05-4.7z" class="al"/><path d="m479.15 87.61 44.53 30.57-8.39-25.38-16.1-21.97-20.04 16.78z" class="aa"/><path d="m521.48 122.83-9.31-42.21 45.63-12.31-3.85 30.2 3.85 7.38-7.8 8.21-28.52 8.73z" class="al"/><path d="m555.56 111.48-1.9-33.51-13.68.08 6.76 35.53 8.82-2.1zM544.67 115.11l-11.01-38.28-6.83-.72 14.35 40.69 3.49-1.69zM512.17 80.62l18.53 38.07-3.81 6.24-5.41-2.1-21.31-45.39 12 3.18z" class="l"/><path d="m515.15 75.29 19.76 41.51-10.65-41.51h-9.11z" class="aa"/><path d="m530.7 118.69-52.76-36.5-3.11 4.43 24.76 21.08 17.52 10.48 10.19 4.3 3.4-3.79z" class="al"/><path d="m521.48 122.83-51.81-34.17 5.16-2.04 52.47 35.86-5.82.35zM578.27 131.86l1.52-39.25 4.36 6.47-2.77 30.51-3.11 2.27z" class="l"/><path d="m573.7 142.63 23.2-26.5-4.59-10.76-18.61 30.44v6.82z" class="aa"/><path d="m523.15 180.81-5.16 5.59-1.92-1.14 3.3-6.54h4.31l-.53 2.09z" class="l"/><path d="m495.8 151.72-9.8-7.55-1.34 1.83 9.69 9.38-11.64-5.6-.9 2.3 11.16 6.81-11.63-1.1-.17 2.18 10.3 2.7 4.33-5.32v-5.63z" class="y"/><path d="m528.07 172.08-25.57-10.05-3.96 2.49 13.88 10.33h11.26l4.39-2.77z" class="p"/><path d="m501.36 164.52 20.27 10.33h-9.21l-12.54-7.11-1.34-3.22h2.82z" class="aa"/><path d="m548.44 164.52-36.02 10.33 6.95 3.87h25.95l3.12-14.2z" class="l"/><path d="m519.37 178.72 29.07-7.37-3.12 7.37-22.17 2.09-3.78-2.09z" class="aa"/><path d="m631.27 160.2 14.64-1.74.7 3.31-14.91 3.25 17.09 2.17-.61 3.05h-16.01l11.55 5.57-1.22 2.91-9.84-2.91-3.69-7.81 2.3-7.8z" class="y"/><path d="m597.74 179.24 21.81-6.46 2.28-4.78-10.12 2.24-13.27 3.94-.7 5.06z" class="l"/><path d="m584.17 165.62 17.07 5.08 2.07.65-2.98 3.5-22.18-.67 6.02-8.56z" class="l"/><path d="m600.33 174.85-18.08-6.5-4.1 5.83 19.59 5.06 2.59-4.39z" class="aa"/><path d="m638.46 133.66 13.3-28.29-10.18 6.88-10.31 26.31 7.19-4.9z" class="l"/><path d="m617.35 144.89 18.22-5.09 2.89-6.14-20.49 4.9-.62 6.33z" class="aa"/><path d="m602.39 147.39 11.81-38.11 12.4-2.98-9.25 38.59-10.42 5.19-4.54-2.69z" class="al"/><path d="m634.92 107.94-17.57 36.95-8.67 4.25 17.85-41.56 8.39.36zM619.47 112.64l-12.54 36.5 6.35-38.09 6.19 1.59zM593.94 152.85l2.96-36.72 10.03-6.85-9.19 41.56-3.8 2.01z" class="l"/><path d="m576.64 151.69 40.71-6.8-3.27 5.95-5.98 4.21-31.93 14.84-2.47-5.37 2.94-12.83z" class="p"/><path d="m577.54 164.52 36.54-13.68-2.31 4.21-33.62 19.13-2.53-2.1 1.92-7.56z" class="al"/><path d="m576.98 156.64 23.35-4.95-23.03 9.38-2.47 1.44 2.15-5.87z" class="l"/><path d="m502.73 250.5-.72 18.62-5.33 1.2-1.28-7.86 3.73-19.59 3.6 1.58v6.05z" class="aa"/><path d="m495.61 243.02-4.31 25.69 5.38 1.61 2.45-23.65.81-3.8-4.33.15z" class="al"/><path d="m499.13 246.67 3.6 3.83 18.9-10.2-2.49-7.94-12.53 5.58-7.48 8.73z" class="l"/><path d="m517.58 229.2-21.97 13.82 3.52 3.65 18.45-11.37v-6.1z" class="p"/><path d="m567.58 258.09 11.01 4.37v-5.25l-12.76-6.28 1.75 7.16z" class="aa"/><path d="m581.79 260.21 1.83 7.97h-4.78l-3.86-12.59 6.81 4.62z" class="p"/><path d="m566.98 248.64 13.76 6.95 1.05 4.62-16.13-6.49 1.32-5.08z" class="l"/><path d="m556.44 80.75 10.21 1.91 5.3 58.87-3.14 9.31-6.29-24.22-6.08-45.87z" class="au"/><path d="m512.42 279.17 3.7-28.85 7.56-24.29 6.88-.4 3.03 14.67.29 19.27-5.42 15.43-5.82 5.59-10.22-1.42z" class="af"/><path d="m523.68 226.03.59-5.98-4.42.46-15.14 57.98 7.71.68 11.26-53.14zM533.59 240.3l14.28-11.1 13.78-2.81 6.81 39.91-3.97 5.22-17.75.8-5.57 6.49-7.29 2.24-2.71-8.03.44-19.3 1.98-13.42z" class="au"/><path d="m555.98 229.2 2.96-3.57 2.71.76 10.3 42.96-7.46 2.17-4.94-7.89-3.57-34.43z" class="al"/><path d="m533.59 240.3 7.58 38.51 6.7-2.06 4-8.1-1.66-5.24-3.47-29.63-4.74-1.42-8.41 7.94z" class="p"/><path d="m555.98 229.2 8.51 42.32-6.48 2.12-5.65-45.41 3.62.97z" class="l"/><path d="m528.46 275-9.32-28.33 3.5 33.92 5.12-1.42.7-4.17z" class="au"/><path d="m549.17 269.34 1.04-5.93 14.28 8.11V275l-6.16 4.17-9.16-9.83z" class="af"/><path d="m549.17 269.34 15.32 5.66v3.81l-6.16.36-10.46-2.42 1.3-7.41z" class="au"/><path d="m564.49 271.52 14.1 9.07-20.26-1.42 6.16-7.65zM533.59 240.3l8.98-11.1 31.13-64.68 2.94-12.83-7.06-62.95-4.68-5.13 3.91 67.23-7.86 11.4-29.52 54.72-3.36 15.4 5.52 7.94z" class="l"/><path d="m528.07 232.36-4.39-6.33 3.21-11.34 27.06-56.23 8.57-7.62 3.14 2.12-2.66 9.49-34.93 69.91z" class="au"/><path d="m519.85 220.51 33.57-65.76 4.62-.25 4.48-3.66-38.84 75.19-3.83-5.52z" class="af"/><path d="m560.98 154.44-8.79-45.4 1.23-27.09 4.74.24 3.13 20.15-1.42 4.31 2.75 4.31 6.19 39.88-7.83 3.6z" class="al"/><path d="m562.62 110.96-10.43-1.92 9.1-6.7 1.33 8.62z" class="l"/><path d="M568.81 150.84 563 162.45l-9.58-7.7 2.57-3.76 6.53 1.32 6.29-1.47z" class="aa"/><path d="m562.52 152.31-25.32 6.8-15.72-36.28 30.71-13.79 10.33 43.27z" class="af"/><path d="m535.28 125.28 4.8 2.27 2.7-5.24 3.5-1.22 3.72 1.39-4.68 14.41-15.37-7.9 2.09-3.1 3.24-.61z" class="au"/><path d="m540.08 127.55-.26 11.38 2.92-.41 2.58-1.63-5.24-9.34z" class="ak"/><path d="m539.82 138.93 3.75 1.29 1.75-3.33-5.5 2.04zM553.42 138.56l-8.1 5.87-8.88.41.81 1.86h8.91l7.5-5.83-.24-2.31z" class="l"/><circle cx="547.67" cy="128.13" r="1.98" class="k"/><circle cx="534.52" cy="132.44" r="1.98" class="k"/><path d="m550 122.48-.64-1.74-5.94-.7-.64 2.27 7.22.17zM535.28 125.28l-1.69-1.57-3.67 3.08.03 2.2 5.33-3.71z" class="av"/><path d="m546.74 233.78 10.09-13.73 11.98-32.6 8.73-22.93-.9-12.83-43.05 88.61 13.15-6.52z" class="al"/><path d="m577.54 164.52.61 9.66-7.89 24.97-8.79 24.53-5.49 5.52-9.24 4.58 30.8-69.26z" class="aa"/><path d="m555.98 229.2 14.28-30.05-8.61 27.24-5.67 2.81z" class="l"/><path d="m533.88 281.05-2.27-27.33-3.15 21.28.7 4.17 4.72 1.88z" class="al"/><path d="m533.88 281.05-5.42-6.05-5.82 5.59-1.01 3.11 2.64 3.12 9.61-5.77z" class="p"/><path d="m522.64 280.59-5.53 4.48 7.16 1.75-1.63-6.23z" class="au"/><path d="m570.26 199.15 15.31-1.4-1.69-3.14-18.22-3.38 4.6 7.92z" class="l"/><path d="m601.24 170.7 17.57-5.08 2.56 1.45-2.11 2.9-18.93 4.88.91-4.15z" class="p"/><path d="m620.11 165.05-.85 4.92.29 2.81 13.11 3.03-1.39-15.61-11.16 4.85z" class="t"/><path d="m618.81 165.62 2.56-5.42 12.34-6.63 1.86 3.07-4.3 3.56-12.01 9.77-.45-4.35z" class="y"/><path d="m500.87 159.86-.99-5.42-4.08-2.72-4.33 10.95 8.41 5.07 1.48-3.22-.49-4.66z" class="t"/><path d="m502.5 162.03-.81-7.59-5.07-7.74-2.03.93 3.95 13.27 2.82 3.62 1.14-2.49z" class="y"/><path d="m410.54 77.26 28.85-12.39 20.87-12.19 6.54-22.61 31.4 1.74 26.06-10.21 11.59-3.87 2.86-9.59 25.28 7.96 3.78 3 8.91 1 37.19 11.71-2.99 18.25 14.81 12.34 9.23 3.98 5.28 3.96 5.87.84 19.06 8.2 6.48 20.86-73.35 1.42-25.13-20.76-56.89-9.72-70.37 21.11-35.33-15.03z" class="ag"/><path d="m410.54 77.26 22.81-4.03 23.49 6.15 28.27-.73 30.57-18.69 46.52 8.35 62.07 23.98 40.86-12.91 6.48 20.86-30.03 12.01-20.31-6.69-24.37 10.57-27.32-27.39-19.22-7.34-38.19-.78-27.06.89-39.63 28.11-34.94-32.36zM613.87 31.81l-31.4 25.62 8.04 4.97h35.18l-4.05-10.47-3.88-4.58-.09-5.7-3.8-9.84zM515.68 59.96l37.74-29.89 29.05 27.36-66.79 2.53zM466.8 30.07l20.27 1.74 6.87 14.86 21.74 13.29-76.29 4.91 13.59-17.26 5.51-3.03 2.83-7.55 5.48-6.96zM524.26 21.6l29.16 8.47-14.71-21.93-14.45 13.46z" class="an"/><path d="m456.84 79.38-11.36 30.24 66.69-29 3.51-20.66-58.84 19.42zM624.27 92.29l-27.37 23.84 44.68-3.88-17.31-19.96zM569.58 88.74l-7.38-20.43-50.03 12.31 57.41 8.12z" class="ah"/><path d="m562.2 68.31 20.27-10.88 43.22 4.97-63.49 5.91zM524.26 21.6l-30.32 25.07-27.14-16.6 57.46-8.47zM456.84 79.38l-17.45-14.51-28.85 12.39 46.3 2.12z" class="av"/><path d="m576.68 31.81 7.76-1.74 2.7 6.91-7.84 2.9-2.62-8.07z" class="am"/><path d="m579.79 34.24 2.43-1.18.94 1.99-2.37 1.25-1-2.06z" class="al"/><path d="m552.76 47.47 5.05-5.35 5.6 5.35-5.6 5.58-5.05-5.58z" class="am"/><path d="m556.44 47.26 1.3-1.5 1.5 1.25-1.93 1.93-.87-1.68z" class="al"/><path d="m609.6 70.09 5.2-3.71 4.95 4.8-5.88 4.11-4.27-5.2z" class="am"/><path d="m613.06 70.49 1.55-1.3 1.19 1.61-1.68 1.19-1.06-1.5z" class="al"/><path d="m623.86 77.16 6.54-1.87 2.06 6.11-6.77 2.21-1.83-6.45z" class="am"/><path d="m626.57 78.72 2.06-.75.37 1.68-1.74.62-.69-1.55z" class="al"/><path d="m650.31 94.16 2.33-6.57 6.64 2.56-2.53 6.44-6.44-2.43z" class="am"/><path d="m654.11 90.86 1.74.87-.81 1.75-1.81-.81.88-1.81z" class="al"/><path d="m588.64 78.53 8.6-3.24 2.45 7.51-7.69 2.77-3.36-7.04z" class="am"/><path d="m592.31 79.96 2.31-1 1.18 2.43-2.68.56-.81-1.99z" class="al"/><path d="m578.42 92.67 3.49-6.04 5.89 3.02-3.65 6.2-5.73-3.18z" class="am"/><path d="m581.54 91.3 1-1.62 1.61.87-1.12 2.06-1.49-1.31z" class="al"/><path d="m537.93 74.28 7.08 4.37 3.2-6.9-7.66-2.81-2.62 5.34z" class="am"/><path d="m541.36 73.48 1-1.87 1.99.94-.93 2.49-2.06-1.56z" class="al"/><path d="m497.45 72.28 5.32-4.43 4.77 3.33-4.77 6.26-5.32-5.16z" class="am"/><path d="m500.69 71.99 1.68-1.37 1.62 1.06-1.56 1.87-1.74-1.56z" class="al"/><path d="m460.42 63.52 6.38-7.57 8.32 6.62-8.32 5.74-6.38-4.79z" class="am"/><path d="m465.49 62.83 1.44-2.12 2.36 1.75-2.74 1.99-1.06-1.62z" class="al"/><path d="m510.53 45.86 4.58-4.21 7.66 2.81-6.54 7.47-5.7-6.07z" class="am"/><path d="m514.14 45.89 1.62-1.75 1.68 1.38-1.43 2.36-1.87-1.99z" class="al"/><path d="m520.12 30.07-1.56 5.7 8.23 2.05 2.52-9.53-9.19 1.78z" class="am"/><path d="m521.93 33.74.68-1.93 2.18.31-.74 2.56-2.12-.94z" class="al"/><path d="m489.97 34.13 5.56-5.84 6.31 2.92-3.64 6.61-8.23-3.69z" class="am"/><path d="m494.64 33.06 1.56-1.75 1.56 1.12-1.25 1.75-1.87-1.12z" class="al"/><path d="m563.99 16.1 3.91 7.43 8.78-3.43-4.91-1.54h-2.56l-1.44-1.26-3.78-1.2z" class="am"/><path d="m567.77 17.3 1.12 2.52 2.88-1.26-4-1.26z" class="al"/><path d="m617.67 41.65-3.8 7.2 7.77 3.08-1.15-2.99-1.83-1.83.31-2.1-1.3-3.36z" class="am"/><path d="m618.97 45.01-1.21 2.34 2.73 1.59-1.52-3.93z" class="al"/><path d="m634.92 66.38 2.03 7.41 9.12-2.61-4.18-1.8-2.3-.19-1.08-1.27-3.59-1.54z" class="am"/><path d="m638.51 67.92.83 2.91 2.55-1.45-3.38-1.46z" class="al"/><path d="m461.32 37.03 2.68 7.98-11.02 2.6 2.74-3.47 2.36-1.76.41-1.76 2.83-3.59z" class="am"/><path d="m458.49 40.62.9 2.59-3.67.93 2.77-3.52z" class="al"/></g><g id="f"><path d="m621.98 249.18-18.99-13.79-5.62.92 27.56 18.12-2.95-5.25zM641.4 243.62l2.85-11.29-4.37 2.97-3.9 15.19 5.42-6.87z" class="l"/><path d="m632.07 250.49 9.33-6.87-1.39 5.34-7.46 6.68-1.27 1.06.79-6.21z" class="al"/><path d="m631.75 252.6 8.26-3.64-6.41 7.74h-2.32l.47-4.1z" class="l"/><path d="m617.7 240.54 9.08 23.22 6.12-9.6-3.85-16.94-11.35 3.32z" class="au"/><path d="m619.24 236.52 9.64 23.93 1.75-2.27-5.94-23.79-5.45 2.13z" class="al"/><path d="m620.07 269.52 12-19.03 1.53 6.21-1.63 5.76-5.61 7.92-6.29-.86z" class="p"/><path d="m626.36 270.38 4.83-2 3.65-7.12-1.24-4.56-7.24 13.68z" class="l"/><path d="m583.39 220.05 14.35 11.58 33.1 7.77 28.25-15.28-12.57-9.95-6.4-3.26v-9.14l-18.88 1.63-10.09-5.12-1.37 8.38-5.06 5.59-21.33 7.8z" class="ag"/><path d="m659.09 224.12-18.97 8.05-6.52-.71-28.64-8.27-21.57-3.14 13.98 16.26 9.77-2.76 10.81 7.61 12.68 2.99 9.38-10.37 19.08-9.66zM646.52 214.17l-11.24 5.88h-7.86l12.7-18.28 6.4 12.4zM604.72 212.25l4.78 1.92 7.21-3.26-5.56-12.63-6.43 13.97z" class="an"/><path d="m627.42 220.05-22.46 3.14 4.65-7.8 7.1-4.48 10.71 9.14z" class="an"/><path d="m630.63 244.15 2.97-12.69 25.49-7.34-28.46 20.03zM604.96 223.19l12.99 17.97-20.58-4.85 7.59-13.12z" class="ah"/><path d="m627.42 220.05 6.18 11.41 12.92-17.29-19.1 5.88zM604.72 212.25l.24 10.94 11.75-12.28-11.99 1.34z" class="av"/><path d="m640.12 201.77-23.41 9.14-5.56-12.63 28.97 3.49z" class="av"/><path d="m205.1 197.84-5.89 1.11-10.52-18.91 9.94 5.97 4.02 2.59 2.45 9.24z" class="aa"/><path d="m216.16 193.45-1.11-10.7-4.15-8.27-3.16 2.06 6.6 18.75 1.82-1.84zM177.94 248.03l-6.03-17.87 3.93-1.87 5.89 16.94.58 2.59-4.37.21z" class="l"/><path d="m200.44 257.84-22.5-9.81 3.79-2.8 18.13 6.3.58 6.31zM221.38 256.71l-6.49-13.59 4.04-4.19 4.11 14.67-1.66 3.11z" class="aa"/><path d="m216.62 267.51 23.4-34.7-7.33-2.04-20.03 36.74h3.96z" class="l"/><path d="m187.28 230.77 4.89-.61 9.78 8.1 8.04 11.55-4.23 10.48-4.22-4.46-13.3-17.82-.96-7.24z" class="aa"/><path d="m200.44 257.84-19.62-25.32 6.46-1.75 18.48 28.82-5.32-1.75z" class="l"/><path d="m206.9 270.74-5.36 13.82 8.45 1.57v-6.28l-3.09-9.11z" class="p"/><path d="m220.64 286.7 8.9-.66-12.92-18.53-1.57 3.93 5.59 15.26z" class="l"/><path d="m215.05 287.01-5.06-.88-9.55-28.29 7.57-3.37 5.23 12.22 1.81 20.32z" class="al"/><path d="m220.64 286.7-8.21-39.2-5.94-16.73-4.54 7.49 13.1 48.75 5.59-.31z" class="p"/><path d="m201.45 198.75-2.82-12.74 5.96-10.29 2.52 21.13-5.66 1.9z" class="l"/><path d="m217.79 189.94-1.63-13.4-5.26-2.06 5.26 18.97 1.63-3.51z" class="aa"/><path d="m186.74 198.33-4.43-16.93 2.29-4.86 7.69 29.59-5.55-7.8z" class="l"/><path d="m158.64 216.8 8.87 8.16v7.08l23.12.74 14.47.3 7.33 14.42 33.32-16.73 13.08-12.72-13.08-6.73-7.59-6.05.81-9.51-21.18-5.82-12.03 8.76-19.02-.37-1.55 7.8-4.37 1.34-22.18 9.33z" class="ag"/><path d="m158.64 216.8 41.8 5.92 11.99 2.18 5.36 7.62 11.75 1.22 20.84-8.15-4.63 6.56-33.32 15.35-10.48-9.24-11.32-7.49-23.12 1.27-8.87-15.24zM238.97 195.76l-16.68 19.03 23.46-3.47-6.78-15.56z" class="an"/><path d="m186.74 198.33 13.7 24.39-19.62-15.25 5.92-9.14z" class="an"/><path d="m217.79 232.52-5.36 14.98 42.72-16.99 3.68-12.46-41.04 14.47zM200.44 222.72l1.51 15.54-34.44-6.22 32.93-9.32z" class="ah"/><path d="m186.74 198.33 35.55 16.46-4.5-24.85-31.05 8.39z" class="av"/><path d="m200.44 222.72 21.85-7.93-4.5 17.73-17.35-9.8z" class="av"/><path d="m197.41 181.35 14.54-8.67 5.84-6.81 8.55-3.49v-10.02l-12-1.96-5.4-2.65-2.33-5.81-9.46 5.21-13.59.6.58 7.07-3.32 3.6-12.86 9.7 3.95 9.16 12.69-.74 12.81 4.81z" class="ag"/><path d="m167.96 168.12 16.18 3.1 20.37-4.65 5.48-7.33 16.35-6.88 5.85 14.63-9.15-2.17-1.41 3.7-5.47 8.02-8.42 2-9.11 7.47-16.32-4.61-4.23-2.03-12.92 1.28 2.8-12.53zM183.56 147.75l11.62 12.41-8.6 1.98-5.76-3.72 2.74-10.67zM206.61 141.94l-2.82 10.42 5.27.82 5.28-2.78-7.73-8.46z" class="an"/><path d="m209.99 159.24-1.26-5.29-4.94-1.59-8.61 7.8 14.81-.92z" class="an"/><path d="m195.18 160.16-11.04 11.06-3.32-12.8 14.36 1.74zM214.34 150.4l-4.35 8.84-6.2-6.88 10.55-1.96zM183.56 147.75l20.23 4.61 2.82-10.42-23.05 5.81z" class="av"/><path d="m184.14 171.22-1.83 10.18-17.15-.75 18.98-9.43zM198.63 186.01l5.88-19.44 11.65 9.97-17.53 9.47zM221.63 168.52l-11.64-9.28 22.2 7.75-10.56 1.53z" class="ah"/><path d="m755.26 226.05-24.1-39.77-2.56 1.07 25.86 42.33.8-3.63z" class="l"/><path d="m730.59 215.93-38.73-19.03 6.82-5.96 33.86 22.19-1.95 2.8z" class="aa"/><path d="m790.49 207.21 26.91-25.92-4.49-1-30.03 27.68 7.61-.76z" class="l"/><path d="m776.11 202.35 14.38 4.86-3.8 3.65-14.18-5.37 3.6-3.14z" class="aa"/><path d="m721.98 200.16 28.25 51.79.99-12.55-11.91-18.48-17.33-20.76z" class="l"/><path d="m753.51 233.67-32.95-47.39-2.91 1.07 2.8 7.78 31.12 46.34 1.94-7.8z" class="l"/><path d="m751.57 237.35-33.92-50-2.79 2.19 35.78 53.34.93-5.53z" class="al"/><path d="m768.74 215.93 23.08-30.11-2.45-1.44-14.44 12.85-11.12 13.63 4.93 5.07z" class="l"/><path d="m762.84 206.89 23.74-24.8 2.79 2.29-23.31 26.48-3.22-3.97zM737.1 279.17l20.07-66.04 6.2 5.2-1.94 26.63-13.64 37.83-10.69-3.62z" class="p"/><path d="m758.62 237.97-15.97 43.08 5.14 1.74 8.28-23.51 2.55-21.31zM753.65 281.97l4.68-.68 10.54-38.41 1.72-21.96-9.98 29.24-6.96 31.81z" class="l"/><path d="m763.37 218.33 7.22 2.59-1.72 21.96-15.22 39.09-5.86.82 15.58-64.46z" class="al"/><path d="m770.4 237.35-1.53 5.53-30.34-53.9 6.23-1.63 17.33 24.88 8.31 25.12z" class="l"/><path d="m770.4 237.35-25.64-50 6.81-2.97 13.1 22.41 7.84 22.89-2.11 7.67z" class="au"/><path d="m772.51 229.68 1.6-5.79-18.23-42.6-4.31 3.09 20.94 45.3z" class="al"/><path d="m668.87 189.28 26.9 9 42.76-9.3 21.97-14.46 26.19 14.76 23.87 1.66 24.51-6.33-20.22-28.32-23.03 2.17-16.15-10.47-9.93-3.04-2.9-13.43-55.57 11.55 4.68 11.43-7.22 7.27-35.86 27.51z" class="ag"/><path d="m668.87 189.28 55.65-10.56 11.06-12.14 21.58-6.38 12.3 13.16 17.93 2.72 47.68 8.53-23.52 13.67-26.1-4.15-16.92-12.04-10.52 4.19-19.48 2.7-18.32 3.36-26.73 14.99-24.61-18.05zM707.27 143.07l20.46 11.37-23 7.33 2.54-18.7z" class="an"/><path d="m775.67 147.99-18.51 12.21 5.68-28.68 12.83 16.47z" class="an"/><path d="m693.48 207.33 31.04-28.61 14.01 10.26-45.05 18.35zM757.16 160.2l30.23 15.88-1.94 18.05-27.44-7.85-.85-26.08zM835.07 184.61l-49.62 9.52 25.46 11.36 24.16-20.88z" class="ah"/><path d="m727.73 154.44 29.43 5.76-32.64 18.52 3.21-24.28zM787.39 176.08l-11.72-28.09 39.18 8.3-27.46 19.79z" class="av"/><path d="m421.07 278.24-1.97-16.05h5.35l-.64 16.05h-2.74z" class="at"/><path d="m405.36 261.07 6.96 2.91 3.39-1.1.8 2.86 7.67 3.21 2.6-12.31-5.01-10.34-16.41 14.77z" class="ab"/><path d="m424.18 268.95 4.8-2.63 1.29-2.57 1.98.78 3.03-1.65.17-1.87 2.27.53 5.01-2.74-18.28-14.47-2.68 1.97 2.41 22.65z" class="ax"/><path d="m416.51 265.74 1.3-8.12-5.49 6.36 4.19 1.76z" class="u"/><path d="m437.72 261.54-7.74-7.22 5.3 8.56 2.44-1.34zM432.25 264.53l-3.96-6.91.69 8.7 3.27-1.79z" class="y"/><path d="m414.34 252.99 8.84 6.57 5.87-11.59-14.71 5.02z" class="aq"/><path d="m419.22 230.92-11.21 21.48 3.11.29 2.61-1.75.61 2.05 8.23.77-.8-15.62-2.55-7.22z" class="ab"/><path d="m422.57 253.76 10.08-9-13.43-13.84 3.35 22.84z" class="ax"/><path d="m414.34 252.99 2.67-10.08-5.89 9.78 3.22.3z" class="u"/><path d="m482.13 249.89 5.47-1.57-.64-2.2-5.88 1.43 1.05 2.34z" class="at"/><path d="m481.08 256.74-3.71-29.8 5.11 8.15 1.39 21.65h-2.79z" class="at"/><path d="m482.48 235.09-4.28-1.49-1.19-3.43-2.63 2.1-9.82-3.41 17.28-23.84 5.06 7.25 1.31 10.74-5.73 12.08z" class="av"/><path d="m482.48 235.09 6.56-2.1 2.51-3.35 4.48 1.17 6.1-2.01-8.31-19.09-2.38-4.69-4.54 7.25-4.42 22.82zM478.2 233.6l3.36-18.06-7.18 16.73 3.82 1.33z" class="y"/><path d="m489.04 232.99.77-13.74 6.22 11.56-6.99 2.18z" class="t"/><path d="m478.98 208.96 6.95 8.3 7.89-7.55-14.84-.75z" class="aq"/><path d="m484.56 179.41-10.18 27.62 4.6 1.93 1.64-1.38.94 2.45 5.34 2.24 1.09-14.67-3.43-18.19z" class="av"/><path d="m486.9 212.27 11.64-4.31-13.98-28.55 2.34 32.86zM478.98 208.96l3.5-11.01-.92 12.08-2.58-1.07z" class="y"/><path d="m258.91 309.54.53-7.11 3.49-1.82-2.62 8.93h-1.4z" class="at"/><path d="m270.61 299.54-11.25 3.94-1.67-5.93 5.24-6.46 7.68 8.45z" class="ao"/><path d="m259.36 303.48-8.3-3.94 8.3-9.41 1.56 3.44-1.56 9.91z" class="av"/><path d="m263.92 292.18-3.63 5.37-2.73-5.37h6.36z" class="aq"/><path d="m260.92 293.57 5.33-2.48-6.2-13.67-1.14 8.71 2.01 7.44z" class="ao"/><path d="m260.92 293.57-5.94-2.48 5.07-13.67.87 16.15z" class="av"/><path d="m606.09 299.04-2.13-17.14 4.09 5.93.58 11.21h-2.54z" class="at"/><path d="m588.4 282.97 4.75 1.18 2.09-1.71.91 2.45 1.96.49 1.81-.49 1.82 1.38 6.31 1.56.58-11.43-6.57-14.49-3.93 8.68-9.73 12.38z" class="ab"/><path d="m608.05 287.83 4.14-2.53.58-2.47 2.17.78 6.3-3.85-13.15-9.01-6.03-8.84 5.99 25.92z" class="ax"/><path d="m593.15 284.15 4.96-8.35-1.96 9.09-3-.74zM598.11 285.38l3.05-10.44.58 11.33-3.63-.89z" class="ay"/><path d="m612.19 285.3-3.56-11.82 6.31 10.13-2.75 1.69z" class="y"/><path d="m598.13 270.59 7.33 6.01 4.15-4.81-11.48-1.2z" class="aq"/><path d="m604.73 273.48-12.11-5.3 9.32-19.6 2.7 9.67.09 15.23z" class="ab"/><path d="m604.73 273.48 9.81-3.39-12.6-21.51 2.79 24.9z" class="ax"/><path d="m598.13 270.59 3.38-11.62-5.88 10.53 2.5 1.09z" class="ay"/><path d="m609.61 271.79-1.95-6.11 4.47 5.24-2.52.87z" class="y"/><path d="m634.49 306.61.49-7.46 3.14-2.85-2.27 10.31h-1.36z" class="at"/><path d="m624.89 295.89 4.08 1.32 1.56-.65 1.09 1.51 3.36 1.08 1.57-6.69-.88-8.09-10.78 11.52z" class="ao"/><path d="m634.98 299.15 5-1.71.47-1.14 1.53.45 3.01-1.03-9.32-11.35-.69 14.78z" class="av"/><path d="m632.98 287.24 2.28 5.81 3.12-5.38-5.4-.43z" class="aq"/><path d="m631.19 286.25 4.28 2.37 1.78-5.76-.94-8.91-5.12 12.3z" class="ao"/><path d="m635.47 288.62 4.98-1.63-4.14-13.04-.84 14.67zM628.97 297.21l3.12-5.1-.47 5.96-2.65-.86z" class="av"/><path d="m639.98 297.44-1.86-6.32 3.86 5.63-2 .69z" class="y"/><path d="m654.05 294.85 1.36-8.24-3.87-6.31.86 14.55h1.65z" class="at"/><path d="m642.15 283.17 2.77.72 1.5-.68.51 1.2 1.52.39 1.23-1.06.76 1.58 4.97 1.29 1-5.09-4.87-11.46-9.39 13.11z" class="ao"/><path d="m655.41 286.61 11.89-5.52-11.89-12.35-1.71 6.41 1.71 11.46z" class="av"/><path d="m649.29 273.2 5.18 7.1 4.94-7.4-10.12.3z" class="aq"/><path d="m653.7 275.15-4.41-1.95-.58-.92-.57.42-2.05-.91 10.32-20.64-.61 14.95-2.1 9.05z" class="ao"/><path d="m653.7 275.15 3.75-1.48.51-1.17 1.45.4 2.8-1.11-5.8-20.64-2.71 24zM649.29 273.2l.89-5.04-2.04 4.54 1.15.5zM650.44 285.32l1.13-8.38-3.12 7.86 1.99.52zM646.93 284.41l1.78-5.36-3.79 4.84 2.01.52z" class="av"/><path d="m659.41 272.9-2.57-6.39.61 7.16 1.96-.77z" class="y"/><path d="m109.37 284.9 2.99-37.4-7.51-2.27 1.96 9.24-.24 10.09-.22 20.34h3.02z" class="at"/><path d="m106.57 264.56 9.87-3.5 1.57-4.3 3.83 2.39 7.97-2.82-27.28-33.61-1.63 10.83 5.67 31.01z" class="av"/><path d="m106.57 264.56-7.73-1.86-.9-1.45-1.69.87-1.85-.41-1.55-1.85-2.46.96-8.4-1.88 20.54-36.22 4.04 41.84zM121.84 259.15l-9.42-12.57 4.02 14.48 5.4-1.91z" class="y"/><path d="m94.86 261.81.84-10-5.31 9.01 4.47.99zM96.25 262.12l4.24-16.12-1.65 16.7-2.59-.58z" class="t"/><path d="m106.57 227.64-2.34 7.72-4.52-7.68 6.86-.04z" class="aq"/><path d="m118.01 223.65-14.89 5.19-3.97-14.05 6.31-13.26 12.55 22.12z" class="av"/><path d="m103.12 228.84-3.41-1.16-1.77-2.16-2.57.81-4.95-1.51 15.04-23.29-2.34 27.31z" class="y"/><path d="m99.71 227.68 1.03-11.82-5.37 10.47 4.34 1.35z" class="t"/><path d="m109.09 207.94-4.69 7.21-3.65-6.33 8.34-.88z" class="aq"/><path d="m104.78 210.28 7.64-4.15-9.31-34.73-1.28 28.46 2.95 10.42z" class="av"/><path d="m104.78 210.28-8.07-2.92 6.4-35.96 1.67 38.88z" class="y"/></g><g id="g"><path d="m288.46 214.05-4.31-22.75 12.16-5.8v13.44l-7.85 15.11z" class="k"/><path d="m287.66 193.59 11.8 3.51-3.15-11.6-5.21.06-3.44 8.03zM412.68 162.42l6.25-1.19 7.12-3.91 7.93-13.92-13.21 3.48-8.15 8.17.06 7.37z" class="q"/><path d="m463.25 126.71-2.14-.54-11.31 7.37-4.32 1.93-3.42 7.09-7.49.44-.78 3.12-7.88 5.72-4.28.18-7.36 5.1 5.93 3.06 15.41-12.86 8.58-1.41 4.8-8.56 14.26-10.64z" class="y"/><path d="m425.65 153.87 8.14-7.75.78-3.12-12.94 9.02 4.02 1.85z" class="ao"/><path d="m461.42 126.89 1.83-.18-2.23-1.1-15.54 9.86 3.97.02 11.97-8.6z" class="as"/><path d="m411.93 148.79 9.29-7.02 12.58-.5.77 1.73-4.14 2.84-5.72 1.06-3.08 5.12-3.67 2.54-5.34.49-.69-6.26z" class="r"/><path d="m439.75 146.64-9.87 15.04-10.95-.45L434.57 143l5.18 3.64z" class="w"/><path d="M355.06 270.76v7.64l9.44-2.92 5.36-4.07 1.75-6.88-16.55 6.23zM314.54 263.88l-2.84 14.56 8.17-.04 8.01-4.05 1.47-4.52-14.81-5.95z" class="an"/><path d="m369.86 271.41-14.8 6.99v3.97l12.55 1.05 15.41-1.05-13.16-10.96z" class="ao"/><path d="M355.06 282.37h27.96v3.78h-27.96z" class="y"/><path d="m327.88 274.35 3.18 10.11-9.69 1.89-11.04-1.89 1.37-6.02 16.18-4.09z" class="ao"/><path d="M310.33 284.46h20.73v3.78h-20.73z" class="y"/><path d="m328.87 165.26-5.56-.83-14.65-1.54 19.57 15.79 1.37 4.64 8.93 18.17 12.02-11.72-21.68-24.51z" class="az"/><path d="m321.37 186.12 6.47 11.34 6.77 3.04 4.88-6.95-9.89-17.22-8.23 9.79z" class="s"/><path d="m383.1 179.88-28.86 42.43-14.75-28.76-11.65 3.91-22.51 61.32 30.52 16.31 45.16-15.41 4.2-2.4-2.11-77.4z" class="az"/><path d="m362.91 200.14-12.36-10.37-11.06 3.78-3.39 79.33 29.87-63.1-3.06-9.64zM308.66 162.89l-12.35 22.61 18.15 9.24 9.57-23.86-15.37-7.99z" class="z"/><path d="m296.31 185.5 8.2 13.44 5.74-3.09 12.87-23.68-26.81 13.33z" class="az"/><path d="m323.12 172.17-15.83 15.59-6.11-1.26-5.33 5.92-.4 18.63 7.15-9.75 10.95 2.31 16.05-27.28-2.93-3.38-3.55-.78z" class="l"/><path d="m389.45 120.68-15.55 3 1.04 7.77 1.58 9.43 7.86-5.47 5.07-14.73z" class="m"/><path d="m372.06 113.51 4.3 11.68 13.09-4.51-17.39-7.17z" class="ae"/><path d="m378.19 150.75 3.02 2.46 6.38 1.3 5.57-11.89-8.88 2.97-6.09 5.16z" class="m"/><path d="M384.38 135.41H373.9l4.29 15.34 14.97-8.13-8.78-7.21zM319.85 145.59l-12.83 3.52-3.74 9.79 7.72 1.43 9.86-8.36-1.01-6.38z" class="ac"/><path d="m318.19 136.64-17.84 4.68 6.67 7.79 12.14 2.29 3.52-5.81-4.49-8.95z" class="m"/><path d="m318.24 123.8-3.53.76-2.69-3.43-11.67 20.19 18.24-2.52-.35-15z" class="ae"/><path d="m328.32 154.05-25.04 4.85 5.38 3.99 21.49-3.52-1.83-5.32zM374.29 113.36l.04.15-.02-.15h-.02z" class="m"/><path d="m415 170.39-7.05-19.55-10.48 5.37-8.34 10.55-1.73 10.43 27.6-6.8z" class="az"/><path d="m378.19 150.75-1.29 12.34 13.6 11.19 6.97-18.07-19.28-5.46z" class="z"/><path d="m380.25 179.61 19.23 2.94 12.38-10.24.73-4.07-22.09 6.04-10.25-10.86-16.4-16.94 16.4 33.13z" class="l"/><path d="m411.93 148.79-3.98 2.05 4.64 17.4-13.11 14.31 4.14.62 14.08-13.84-5.77-20.54z" class="y"/><path d="m373.06 182.07 7.19-2.46-3.58-7.3-3.61 9.76z" class="az"/><path d="m350.55 189.77.94.6-.94-.6z" class="as"/><path d="m374.09 172.44-3.63 9.82-.34.82 2.94-1.01 3.61-9.76-1.38-2.81-1.2 2.94zM362.91 144.29l-.03-.07-.12.08.15-.01z" class="y"/><path d="M379.3 142.27 370 88.01l-15.44-11.9-9.81 8.29-20.35-1.34-3.54 3.23 7.37 14.38 11.99 52.21 19.27-5.21 19.81-5.4z" class="r"/><path d="M354.56 79.2 370 88.01l-9.21-12.29-7.57-2.22-1.6 2.61 2.94 3.09z" class="x"/><path d="m353.22 73.5-15.58-4.57.37 11.61 8.4 7.47 8.15-8.81-1.34-5.7z" class="ae"/><path d="m322.81 80.54.16 1.82 1.26 1.03 22.16 4.65.02-.03-8.77-19.08-14.83 11.61z" class="ac"/><path d="m336.73 104.71 20.03 20.48-1.02-17.44-7.37-7.13 6.25-1.1 3.22 8.98 2.98 4.96L365 98.61l-4.64-1.99-3.73.68-2.01 2.22-6.25 1.1-3.62-1.76-4.53 1.81-3.49 4.04zM329.94 92.52l-5.54-9.46-12.38 15.45 7.83 5.4-6.14 13.86-5.05 1.87 4.15 12.09 4.27-1.06 2.77.56-1.26 7.57 1.26 6.79 16.88 12.12 4.64-4.83-11.43-60.36z" class="w"/><path d="m317.08 130.67 1.51 8.13 4.03-9.62-5.54 1.49zM350.08 150.27l-12.07 2.38 10.86 8.49 1.21-10.87zM312.02 121.13l7.14 4.77-1.89-6.47-5.25 1.7z" class="q"/><path d="m336.1 272.88-30.77-14.1-2.46 6.7 32.84 11.64 49.69-12.59-.19-7.25-49.11 15.6z" class="y"/><circle cx="344.67" cy="111.44" r="2.37" class="aw"/><circle cx="363.12" cy="107.25" r="2.37" class="aw"/><path d="m354.62 99.52 4.55 6.47 3.95 17.81-2.76 1.39h-3.6l-3.44-17.58-4.95-6.99 6.25-1.1z" style="fill:#e8cab6;stroke-width:0"/><path d="m306.13 93.76 7.58 24.01 2.41-.87 5.16 2.99 1.49-18.91-5.94-3.49 7.57-14.43-1.59-2.52-16.68 13.22z" class="m"/><path d="m346.22 155.84-4.85 5.2-13.76 9.84 25.53 19.53 16.98-7.33-23.9-27.24z" class="ao"/><path d="m320.86 168.89 6.75 1.99 19.87-7.46-13.63-9.37-14.69-2.65-8.16 8.93 9.86 8.56z" style="fill:#84c8ab;stroke-width:0"/><path d="M351.49 186.04 311 160.33l-2.34 2.56 41.89 26.88 15.42 20.01 8.41-26.7-22.89 2.96zM346.22 155.84l-26.37-10.25-.69 5.81 28.32 12.02-1.26-7.58z" class="y"/><path d="m356.76 125.19-13.62 12.26 8.35 48.59 15.29 14.08 1.16 2.07-.53 2.07-1.44 5.52 8.37 5.81-5.58-59.38-7.95-30.14-4.05-.88z" class="ac"/><path d="m375.95 198.72 7.15-18.84-8.16-48.43-11.82-7.65-2.31 2.27 13.53 89.52 4.6-8.92-2.36-3.82-1.29-1.88.66-2.25z" class="x"/><path d="m366.771 200.118 9.173-1.405.633 4.132-9.173 1.405z" class="s"/><path d="m367.2 131.57-5.2 2.4-8.18-.12-1.29-2.62 9.08.13 6.06-2.54-.47 2.75z" class="q"/><path d="m363.12 123.8-6.36 1.39 4.31 2.63 2.05-4.02zM344.01 96.62l.74 2.24-8.02 5.85-1.04-2.62 8.32-5.47zM355.74 94.63l.89 2.67 8.37 1.31.57-1.81-9.83-2.17z" class="m"/><path d="m307.29 187.76 6.26 15.85-18.1 7.44 11.84-23.29z" class="s"/><path d="m296.31 185.5 4.87 1-5.73 24.55-6.99 3 7.85-28.55z" class="t"/><path d="m287.61 177.19-5.81 1.63-3.71 8.54 9.57 6.23 4.94-4.62-1.5-7.66-3.49-4.12z" class="w"/><path d="m296.31 185.5-1.44-6-6.75-8.08-2.24 1.7 6.72 15.85 3.71-3.47z" class="r"/><path d="m287.61 177.19-9.52-9.57-4.13 6.66 4.13 13.08 9.52-10.17z" class="r"/><path d="m267.89 139.32 1.03-7.8 3.98 6.03 7.06-1.76-6.77 5.59-1.18 7.65-2.65-5.88-7.8-.3 6.33-3.53zM280.25 146.16l3.24-3.68-.73 5.6 3.97 3.38-4.86-1.32-2.94 3.82 1.03-4.85-3.68-3.39 3.97.44zM258.84 156.24l7.21-.73-5.44 4.27 1.17 7.35-4.12-5.15-5.89 2.8 4.71-6.62-2.64-7.8 5 5.88zM276.17 110.67l-.55 4.74 4.3 1.77-4.96.55-2.1 3.97.55-4.74-3.86-3.2 4.41 1.32 2.21-4.41z" class="o"/><path d="m466.53 122.13 3.37-3.02 3.03 4.3-4.77 2.68-1.63-3.96zM464.66 129.82l1.87-.7.93 1.98-2.8.7v-1.98zM475.61 126.21l2.09-2.8 2.56 1.63-1.51 3.26-3.14-2.09zM481.43 131.1l2.56-.47 1.16 1.98-2.91 1.63-.81-3.14zM460.01 121.32l.58-2.33 2.44.35-.11 3.49-2.91-1.51z" class="ap"/></g><g id="h"><path d="m423.43 289.1-4.72 11.17 17.55 3.88 2.97-2.18 3.37 3.58 3.15.7 4.28-.7 2.33 2.16 4.19.92 2.42-.92 2.11 1.92 12.47 2.76 8.5-6.39-1.4-8.52-57.22-8.38z" class="ar"/><path d="m473.55 312.39 24.57-2.53 3.46-2.69 4.29 1.89 4.1-.43 2.17-2.42 3.15 1.88 20.26-2.09-7.12-16.11-38.81 4.92-12.46 5.93-3.61 11.65zM436.26 304.15l5.29-11.12 3.13-1.72-2.08 14.24-6.34-1.4zM445.75 306.25l5.27-14.27 7.95 3.23-6.61 12.5-6.61-1.46zM456.55 308.63l6.74-10.89-2.21 11.89-4.53-1z" class="j"/><path d="M498.12 309.86 494.86 297l2.38-2.92 8.63 14.98-7.75.8zM509.97 308.63l-4.77-13.82 10.09 13.28-5.32.54z" class="ai"/><path d="m423.43 289.1 49.13-8.91 55.87 9.7-51.27 10.85-53.73-11.64z" class="au"/><path d="m441.94 285.74 3.91-7.7 37.92 2.46-1.26 7.9-3.71 5.68-9.27-2.1-2.14-2.88-5.16 1.23-3.26-.74-1.57-2.06-3.92.82-11.54-2.61z" class="ar"/><path d="m478.8 294.08 10.69-2.1 1.94-3.21 3.43 2.16 2.35-.46.03-1.37 1.74 1.02 6.89-1.35v-1.85l3.87 1.09 3.69-.72-7.74-12.55-19.22 2.48-6.78 7.29-.89 9.57zM453.48 288.35l6.44-7.85-.95 9.09-5.49-1.24zM462.23 290.33l3.24-8.85 7.09-1.29-3.03 11.79-7.3-1.65z" class="j"/><path d="m489.49 291.98-1.5-13.94h2.42l4.45 12.89-5.37 1.05zM497.21 290.47l-3.87-13.25 3.6.82 2.04 12.08-1.77.35zM505.87 288.77l-5.5-11.92 9.37 11.16-3.87.76z" class="ai"/><path d="m445.85 278.04 31.8-6.2 28.04 2.9-26 9.77-33.84-6.47z" class="au"/><path d="m145.08 293.16 6.68 1.4 2.53-1.4 1.13 2.16 2.75.57 3.39-.87 1.93 1.98 8.95 1.87 3.96-5.71-2.33-9.37-26.08.84-2.91 8.53z" class="j"/><path d="m172.44 298.87 7.97-2.16 1.82-2.65 1.81 1.67 2.64-.71 1.82-3.27 3.82 1.74 6.43-1.74-3.03-9.66-19.32 1.7-4.87 4.34.91 10.74z" class="ar"/><path d="m186.68 295.02-4.14-11.77h4.14l5.64 10.24-5.64 1.53zM184.04 295.73l-2.7-6.6-.93 7.58 3.63-.98z" class="j"/><path d="m151.76 294.56 5.05-8.62-1.39 9.38-3.66-.76zM158.17 295.89l4.23-11.51 2.56 2.77-1.47 9.85-5.32-1.11z" class="ai"/><path d="m147.99 284.63 23.54 3.5 24.19-6.04-27.12-3.72-20.61 6.26z" class="au"/><path d="m459.92 277.22 9.43 1.59 12.7-2.69-13.72-1.38-8.41 2.48z" class="n"/></g><g id="i"><path d="m470.15 250.12-7.75-1.96-4.89 4.26 9.32 5.81 3.32-8.11z" class="au"/><path d="m461 254.6 2.64-3.51 5.18 2.81-3.91 3.13-3.91-2.43z" class="ak"/><path d="m467.29 277.6-.62-9.83 5.15-2.66-4.53 12.49z" class="av"/><path d="m470.15 269.71 6.14-9.63-13.89 1.76 7.75 7.87z" class="am"/><path d="m466.06 263.17-3.66-3.09-7.75.97 15.5 8.66-4.09-6.54zM476.29 260.08l-6.14-9.96-4.92 4.48-1.81 4.1 2.64 4.47 10.23-3.09z" class="ap"/><path d="m465.23 254.6-7.72-2.18-2.86 8.63 11.41 2.12-.83-8.57z" class="o"/><path d="m392 261.13 5.92-3.34 5.74 3.89-6.75 8.54-4.2-4.25-.71-4.84z" class="au"/><path d="m393.61 262.88 3.3-2.09 3.66 3.09-3.22 3.49-3.74-4.49z" class="ak"/><path d="m397.92 299.84-4.17-13.23 3.85-5.02.32 18.25z" class="ay"/><path d="m393.75 286.61-8.35-10.88 13.6-.99-5.25 11.87z" class="am"/><path d="m393.75 286.61 12.24-9.76-5.42-3.97-5.41 5.56-1.41 8.17z" class="ap"/><path d="m385.4 275.73 6.6-14.6 5.92 3.4 1.88 7.31-4.64 6.6-9.76-2.71z" class="ap"/><path d="m405.99 276.85-2.33-15.17-5.74 2.85-2.76 13.91 10.83-1.59z" class="o"/><path d="m560.5 286.03-6.27-2.1-4.63 2.72 3.62 4.14 5.21-1.14 2.07-3.62z" class="au"/><path d="m557.71 287.49-2.66-1.46-2.96 2.16.77.61 4.85-1.31z" class="ak"/><path d="m559.26 308.8-3.38-6.87 2.79-5.12.59 11.99z" class="ay"/><path d="m555.88 301.93 10.31-7.73-14.66-.24 4.35 7.97z" class="am"/><path d="m555.88 301.93-10.9-5.58 5.28-3.69 4.37 3.88 1.25 5.39zM566.19 294.2l-5.69-8.17-6.27 2.61-3.34 3.29 3.74 4.61 11.56-2.34z" class="ap"/><path d="m544.98 296.35 4.62-9.7 4.63 1.99.4 7.9-9.65-.19z" class="o"/><path d="m721.11 265.06-4.63-1.09-4.01 2.67 3.14 5.27 4.51-1.46.99-5.39z" class="au"/><path d="m719.49 267.71-2.3-1.86-3.36 1.96 3 5.36 2.66-5.46z" class="ak"/><path d="m720.05 294.8-2.14-8.73 4.78-8.89-2.64 17.62z" class="ay"/><path d="m717.91 286.07 8.93-9.04-12.7-3.47 3.77 12.51z" class="am"/><path d="m717.91 286.07-9.44-6.31 4.57-5.48 3.79 5.73 1.08 6.06zM726.84 277.03l-5.73-11.97-4.63 4.12-2.89 4.17 3.24 6.66 10.01-2.98z" class="ap"/><path d="m708.47 279.76 4-13.12 4.01 2.54.35 10.83-8.36-.25z" class="o"/><path d="m695.15 300.29-1.97-6.16 3.02-1.52-1.05 7.68z" class="ay"/><path d="m688.69 293.67 7.08 2.08 5.47-4.52-8.06-1.92-4.49 4.36z" class="ap"/><path d="m692.56 292.61 2.04-1.4 1.6.7-1.82 1.61-1.82-.91z" class="au"/><path d="m818.18 283.65 1.04 9.98 3.27-9.43-4.31-.55z" class="ay"/><path d="m821.51 287.04-8.1-5.66 9.08-1.89 5.77 4.16-6.75 3.39z" class="ap"/><path d="m819.22 282.49 2.57-.95 2.01 1.72-2.29.82-2.29-1.59z" class="au"/><path d="m125.27 300.03-4.34-10.46 3.42-2.35.92 12.81z" class="ay"/><path d="m121.84 291.77-7.5-3.64 10.13-4.88 6.64 2.88-9.27 5.64z" class="ap"/><path d="m120.93 287.51 2.61-1.57 1.73.76-2.54 1.63-1.8-.82z" class="au"/><path d="m56.62 287.92 1.05-8.2 3.22.61-4.27 7.59z" class="ay"/><path d="m60.02 281.89-6.46-3.92 7.33-2.09 5.94 3.84-6.81 2.17z" class="ap"/><path d="m58.36 278.32 1.92-.7 1.75 1.14-2.1.87-1.57-1.31z" class="au"/><path d="m72.06 295.71.7-6.2 3.06.61-3.76 5.59z" class="ay"/><path d="m79.83 289.36-7.29 2.15-3.88-3.72 6.32-1.7 4.85 3.27z" class="ap"/><path d="m72.59 288.46 1.48-.79 1.49.79-1.93 1.05-1.04-1.05z" class="au"/></g></svg>